<?xml version="1.0" encoding="UTF-8" standalone="no"?>
<!-- Generator: Adobe Illustrator 25.0.1, SVG Export Plug-In . SVG Version: 6.00 Build 0)  -->

<svg
   version="1.1"
   id="Laag_1"
   x="0px"
   y="0px"
   viewBox="0 0 32.299999 27.671881"
   xml:space="preserve"
   sodipodi:docname="a7d5222eeca7ba85070821d7ac960886.svg"
   width="32.299999"
   height="27.671881"
   xmlns:inkscape="http://www.inkscape.org/namespaces/inkscape"
   xmlns:sodipodi="http://sodipodi.sourceforge.net/DTD/sodipodi-0.dtd"
   xmlns="http://www.w3.org/2000/svg"
   xmlns:svg="http://www.w3.org/2000/svg"><defs
   id="defs15" /><sodipodi:namedview
   id="namedview13"
   pagecolor="#ffffff"
   bordercolor="#666666"
   borderopacity="1.0"
   inkscape:pageshadow="2"
   inkscape:pageopacity="0.0"
   inkscape:pagecheckerboard="0" />
<style
   type="text/css"
   id="style2">
	.st0{fill:#FFFFFF;}
</style>
<g
   id="g10"
   transform="translate(0.1,-2.2233593)">
	<path
   class="st0"
   d="m 0.1,23.5 c 0,-0.1 0.1,-0.1 0.1,-0.2 0.3,-0.9 1,-1.4 1.9,-1.4 0.9,0 1.9,0 2.8,0 1.5,0.1 2.6,-0.5 3.5,-1.6 0.4,-0.4 0.7,-0.9 1,-1.3 1.7,-2.7 3.4,-5.3 5.1,-8 0.9,-1.4 2,-2.6 3.4,-3.5 1.2,-0.8 2.5,-1.1 4,-1.1 1.1,0 2.2,0 3.3,0 C 25,6 24.7,5.8 24.5,5.6 c -1,-1.1 -0.5,-2.9 1,-3.3 0.7,-0.2 1.3,0 1.9,0.5 1.4,1.4 2.8,2.8 4.1,4.2 0.2,0.3 0.4,0.6 0.5,1 0,0.2 0,0.5 0,0.8 -0.2,0.6 -0.6,1.1 -1.1,1.5 -1.2,1.2 -2.3,2.3 -3.5,3.5 -0.9,0.8 -2.2,0.8 -2.9,-0.1 -0.7,-0.8 -0.7,-1.9 0,-2.6 0.2,-0.2 0.5,-0.4 0.7,-0.6 0,0 0,-0.1 -0.1,-0.1 -0.1,0 -0.2,0 -0.3,0 -0.9,0 -1.8,0 -2.7,0 -1.2,0 -2.1,0.4 -2.9,1.2 -0.5,0.5 -1,1.1 -1.4,1.7 -1.9,2.8 -3.7,5.7 -5.5,8.6 -1.1,1.6 -2.4,2.9 -4.3,3.7 -0.9,0.4 -1.8,0.5 -2.7,0.5 -1.1,0 -2.1,0 -3.2,0 -1.1,0 -1.8,-0.5 -2.1,-1.6 0,0 0,0 -0.1,-0.1 0.2,-0.4 0.2,-0.6 0.2,-0.9 z"
   id="path4" />
	<path
   class="st0"
   d="m 32.1,24.2 c -0.1,0.6 -0.5,1.1 -1,1.5 -1.2,1.2 -2.4,2.4 -3.6,3.6 -1,1 -2.7,0.7 -3.2,-0.6 -0.3,-0.8 -0.2,-1.5 0.3,-2.2 0.2,-0.2 0.4,-0.4 0.7,-0.6 0,0 0,-0.1 0,-0.1 -0.1,0 -0.2,0 -0.3,0 -1,0 -2.1,0 -3.1,0 -2.3,-0.1 -4.2,-1.1 -5.8,-2.8 -0.7,-0.8 -0.6,-2 0.2,-2.7 0.8,-0.7 1.9,-0.7 2.7,0 0.3,0.3 0.6,0.6 0.9,0.8 0.6,0.5 1.4,0.7 2.2,0.7 1,0 1.9,0 2.9,0 0.1,0 0.2,0 0.3,0 0,0 0,0 0,-0.1 -0.2,-0.2 -0.4,-0.3 -0.5,-0.5 -0.8,-0.8 -0.8,-2.1 0,-2.9 0.8,-0.8 2,-0.8 2.9,0 1.3,1.3 2.6,2.6 3.9,3.9 0.3,0.3 0.4,0.7 0.6,1.1 -0.1,0.4 -0.1,0.7 -0.1,0.9 z"
   id="path6" />
	<path
   class="st0"
   d="M 0.1,7.9 C 0.2,7.8 0.2,7.6 0.3,7.5 0.6,6.8 1.2,6.3 2,6.3 c 1.4,0 2.9,-0.1 4.3,0.1 2.1,0.2 3.7,1.2 5.1,2.7 0.7,0.8 0.6,2 -0.2,2.7 -0.8,0.7 -1.9,0.7 -2.7,0 -0.3,-0.3 -0.7,-0.6 -1,-0.9 -0.6,-0.4 -1.3,-0.6 -2.1,-0.6 -1,0 -2,0 -3,0 -1.1,0 -1.8,-0.5 -2.1,-1.6 0,0 0,0 -0.1,-0.1 C 0.1,8.4 0.1,8.1 0.1,7.9 Z"
   id="path8" />
</g>
</svg>
