<?xml version="1.0" encoding="UTF-8" standalone="no"?>
<!-- Generator: Adobe Illustrator 25.0.1, SVG Export Plug-In . SVG Version: 6.00 Build 0)  -->

<svg
   version="1.1"
   id="Laag_1"
   x="0px"
   y="0px"
   viewBox="0 0 32.099998 18.331676"
   xml:space="preserve"
   sodipodi:docname="49dd126a134f356fd59175c395dc85b7.svg"
   width="32.099998"
   height="18.331676"
   xmlns:inkscape="http://www.inkscape.org/namespaces/inkscape"
   xmlns:sodipodi="http://sodipodi.sourceforge.net/DTD/sodipodi-0.dtd"
   xmlns="http://www.w3.org/2000/svg"
   xmlns:svg="http://www.w3.org/2000/svg"><defs
   id="defs11" /><sodipodi:namedview
   id="namedview9"
   pagecolor="#ffffff"
   bordercolor="#666666"
   borderopacity="1.0"
   inkscape:pageshadow="2"
   inkscape:pageopacity="0.0"
   inkscape:pagecheckerboard="0" />
<style
   type="text/css"
   id="style2">
	.st0{fill:#212427;}
</style>
<g
   id="g6"
   transform="translate(-0.1,-6.9841616)">
	<path
   class="st0"
   d="M 0.1,8.9 C 0.2,8.3 0.5,7.8 1,7.5 c 0.8,-0.6 2,-0.6 2.7,0 0.1,0 0.3,0.2 0.4,0.3 3.9,3.9 7.8,7.8 11.7,11.7 0.1,0.1 0.2,0.2 0.4,0.4 0.1,-0.1 0.1,-0.2 0.2,-0.3 3.9,-3.9 7.8,-7.9 11.8,-11.8 0.7,-0.7 1.5,-1 2.4,-0.7 0.7,0.2 1.2,0.7 1.5,1.5 0,0.1 0.1,0.2 0.1,0.4 0,0.2 0,0.4 0,0.6 -0.1,0.7 -0.6,1.2 -1.1,1.7 -4.4,4.4 -8.8,8.8 -13.2,13.2 -0.7,0.7 -1.5,1 -2.4,0.7 C 15.2,25.1 14.8,24.9 14.6,24.6 10.1,20.1 5.5,15.5 1,11 0.4,10.5 0.2,10 0.1,9.5 c 0,-0.2 0,-0.4 0,-0.6 z"
   id="path4" />
</g>
</svg>
