<?xml version="1.0" encoding="UTF-8" standalone="no"?>
<!-- Generator: Adobe Illustrator 25.0.1, SVG Export Plug-In . SVG Version: 6.00 Build 0)  -->

<svg
   version="1.1"
   id="Laag_1"
   x="0px"
   y="0px"
   viewBox="0 0 31.299999 31.200001"
   xml:space="preserve"
   sodipodi:docname="3a355e3213f441d46c15c72581a1d2b2.svg"
   width="31.299999"
   height="31.200001"
   xmlns:inkscape="http://www.inkscape.org/namespaces/inkscape"
   xmlns:sodipodi="http://sodipodi.sourceforge.net/DTD/sodipodi-0.dtd"
   xmlns="http://www.w3.org/2000/svg"
   xmlns:svg="http://www.w3.org/2000/svg"><defs
   id="defs15" /><sodipodi:namedview
   id="namedview13"
   pagecolor="#ffffff"
   bordercolor="#666666"
   borderopacity="1.0"
   inkscape:pageshadow="2"
   inkscape:pageopacity="0.0"
   inkscape:pagecheckerboard="0" />
<style
   type="text/css"
   id="style2">
	.st0{fill:#212427;}
</style>
<g
   id="g10"
   transform="translate(-0.3,-0.4)">
	<path
   class="st0"
   d="m 16,0.4 c 8.6,0 15.6,7 15.6,15.6 0,8.6 -7,15.6 -15.7,15.6 C 7.3,31.6 0.3,24.6 0.3,16 0.4,7.4 7.4,0.4 16,0.4 Z M 6.4,16 c 0,0 0,0 0,0 0,1.2 0,2.4 0,3.5 0,0.4 0,0.9 0.1,1.3 0.3,1.9 1.2,3.4 3.1,4.2 0.9,0.4 1.8,0.5 2.7,0.5 2.4,0 4.9,0 7.3,0 0.5,0 1.1,0 1.6,-0.1 2,-0.3 3.4,-1.3 4.1,-3.2 0.3,-0.8 0.4,-1.6 0.4,-2.5 0,-2.4 0,-4.8 0,-7.2 0,-0.5 0,-0.9 -0.1,-1.4 C 25.3,9.1 24.3,7.6 22.4,6.9 21.6,6.6 20.8,6.5 20,6.5 c -2.6,0 -5.2,0 -7.7,0 -1,0 -1.9,0.2 -2.8,0.6 C 7.5,8 6.7,9.7 6.6,11.7 6.3,13.1 6.4,14.6 6.4,16 Z"
   id="path4" />
	<path
   class="st0"
   d="m 16,8.3 c 1.3,0 2.6,0 3.9,0 0.4,0 0.8,0.1 1.2,0.2 1.5,0.4 2.5,1.5 2.7,3.1 0,0.4 0.1,0.7 0.1,1.1 0,2.4 0,4.8 0,7.2 0,0.6 -0.1,1.2 -0.3,1.7 -0.5,1.4 -1.6,2.2 -3,2.3 C 18.8,24 17,24 15.1,24 13.9,24 12.7,24 11.6,23.9 9.5,23.7 8.2,22.4 8.2,20.2 c -0.1,-2.7 0,-5.4 0,-8.1 0,-0.6 0.2,-1.1 0.4,-1.7 0.5,-1.3 1.6,-1.9 2.9,-2 1.3,-0.1 2.5,-0.1 3.8,-0.1 0.2,-0.1 0.4,-0.1 0.7,0 0,-0.1 0,-0.1 0,0 z m 5.1,7.7 c 0,-2.8 -2.2,-5.1 -5.1,-5.1 -2.8,0 -5.1,2.2 -5.1,5.1 0,2.8 2.3,5.1 5.1,5.1 2.8,0 5.1,-2.3 5.1,-5.1 z m 0,-4 c 0.6,0 1,-0.4 1,-1 0,-0.6 -0.4,-1 -1,-1 -0.6,0 -1,0.4 -1,1 0,0.5 0.4,1 1,1 z"
   id="path6" />
	<path
   class="st0"
   d="m 19.3,16 c 0,1.8 -1.4,3.3 -3.3,3.3 -1.8,0 -3.3,-1.4 -3.3,-3.3 0,-1.8 1.4,-3.3 3.3,-3.3 1.8,0 3.3,1.5 3.3,3.3 z"
   id="path8" />
</g>
</svg>
