<?xml version="1.0" encoding="UTF-8" standalone="no"?>
<!-- Generator: Adobe Illustrator 25.0.1, SVG Export Plug-In . SVG Version: 6.00 Build 0)  -->

<svg
   version="1.1"
   id="Laag_1"
   x="0px"
   y="0px"
   viewBox="0 0 18.365839 32.099998"
   xml:space="preserve"
   sodipodi:docname="74ca91d55a3905e84c296cc0c2948f55.svg"
   width="18.365839"
   height="32.099998"
   xmlns:inkscape="http://www.inkscape.org/namespaces/inkscape"
   xmlns:sodipodi="http://sodipodi.sourceforge.net/DTD/sodipodi-0.dtd"
   xmlns="http://www.w3.org/2000/svg"
   xmlns:svg="http://www.w3.org/2000/svg"><defs
   id="defs11" /><sodipodi:namedview
   id="namedview9"
   pagecolor="#ffffff"
   bordercolor="#666666"
   borderopacity="1.0"
   inkscape:pageshadow="2"
   inkscape:pageopacity="0.0"
   inkscape:pagecheckerboard="0" />
<style
   type="text/css"
   id="style2">
	.st0{fill:#FFFFFF;}
</style>
<g
   id="g6"
   transform="translate(-6.6841616,-0.1)">
	<path
   class="st0"
   d="m 23.2,0.1 c 0.6,0.1 1.1,0.4 1.4,0.9 0.6,0.8 0.6,2 0,2.7 -0.1,0.2 -0.3,0.3 -0.4,0.4 -3.9,3.9 -7.8,7.8 -11.7,11.7 -0.1,0.1 -0.2,0.2 -0.4,0.4 0.1,0.1 0.2,0.1 0.3,0.2 3.9,3.9 7.9,7.8 11.8,11.8 0.7,0.7 1,1.5 0.7,2.4 -0.2,0.7 -0.7,1.2 -1.5,1.5 -0.1,0 -0.2,0.1 -0.4,0.1 -0.2,0 -0.4,0 -0.6,0 -0.7,-0.1 -1.2,-0.6 -1.7,-1 C 16.3,26.8 11.9,22.4 7.5,18 6.8,17.3 6.5,16.5 6.8,15.6 6.9,15.3 7.1,14.9 7.4,14.7 11.9,10.2 16.5,5.6 21,1.1 21.4,0.7 21.8,0.5 22.3,0.4 22.8,0.1 23,0.1 23.2,0.1 Z"
   id="path4" />
</g>
</svg>
