<?xml version="1.0" encoding="UTF-8" standalone="no"?>
<!-- Generator: Adobe Illustrator 25.0.1, SVG Export Plug-In . SVG Version: 6.00 Build 0)  -->

<svg
   version="1.1"
   id="Laag_1"
   x="0px"
   y="0px"
   viewBox="0 0 27.9 32.099998"
   xml:space="preserve"
   sodipodi:docname="bc1cd8154dca96273f19337cc43ba5f8.svg"
   width="27.9"
   height="32.099998"
   xmlns:inkscape="http://www.inkscape.org/namespaces/inkscape"
   xmlns:sodipodi="http://sodipodi.sourceforge.net/DTD/sodipodi-0.dtd"
   xmlns="http://www.w3.org/2000/svg"
   xmlns:svg="http://www.w3.org/2000/svg"><defs
   id="defs13" /><sodipodi:namedview
   id="namedview11"
   pagecolor="#ffffff"
   bordercolor="#666666"
   borderopacity="1.0"
   inkscape:pageshadow="2"
   inkscape:pageopacity="0.0"
   inkscape:pagecheckerboard="0" />
<style
   type="text/css"
   id="style2">
	.st0{fill:#212427;}
</style>
<g
   id="g8"
   transform="translate(-2)">
	<path
   class="st0"
   d="m 21.6,0.1 c 0.1,0 0.2,0.1 0.3,0.1 0.6,0.3 1,1 0.9,1.7 -0.2,0.6 -0.8,1.1 -1.4,1.2 -0.1,0 -0.2,0 -0.3,0 -4.6,0 -9.1,0 -13.7,0 -1.4,0 -2.3,0.8 -2.3,2.2 0,7.2 0,14.4 0,21.6 0,1.4 0.8,2.2 2.2,2.2 4.6,0 9.2,0 13.9,0 0.8,0 1.4,0.5 1.5,1.2 0.1,0.8 -0.3,1.4 -1.1,1.7 0,0 -0.1,0 -0.1,0.1 -5,0 -10,0 -15,0 -0.1,0 -0.1,0 -0.2,-0.1 C 3.9,31.6 2,29.6 2,27.1 2,19.7 2,12.4 2,5 2,2.7 3.6,0.7 5.8,0.2 6,0.1 6.2,0.1 6.5,0 11.6,0.1 16.6,0.1 21.6,0.1 Z"
   id="path4" />
	<path
   class="st0"
   d="m 24.8,17.6 c -0.1,0 -0.2,0 -0.3,0 -3.8,0 -7.5,0 -11.3,0 -0.9,0 -1.5,-0.5 -1.6,-1.3 -0.1,-0.9 0.6,-1.7 1.5,-1.7 1.8,0 3.6,0 5.5,0 2,0 3.9,0 5.9,0 0.1,0 0.2,0 0.4,0 C 24.8,14.5 24.7,14.4 24.6,14.3 23.2,12.9 21.8,11.5 20.3,10 19.4,9.1 19.8,7.7 21,7.5 c 0.5,-0.1 1,0 1.4,0.4 0.7,0.6 1.3,1.3 1.9,1.9 1.7,1.7 3.4,3.4 5,5 0.8,0.8 0.8,1.6 0,2.4 -2.3,2.3 -4.6,4.6 -6.9,6.9 -0.7,0.7 -1.6,0.7 -2.2,0 -0.5,-0.6 -0.5,-1.5 0.1,-2.1 1.2,-1.2 2.3,-2.3 3.5,-3.5 0.4,-0.2 0.7,-0.5 1,-0.9 0,0 0,0 0,0 z"
   id="path6" />
</g>
</svg>
