<?xml version="1.0" encoding="UTF-8" standalone="no"?>
<!-- Generator: Adobe Illustrator 25.0.1, SVG Export Plug-In . SVG Version: 6.00 Build 0)  -->

<svg
   version="1.1"
   id="Laag_1"
   x="0px"
   y="0px"
   viewBox="0 0 32.200001 32.200001"
   xml:space="preserve"
   sodipodi:docname="9a820c5dffb316d8cdb3ec76e71045cf.svg"
   width="32.200001"
   height="32.200001"
   xmlns:inkscape="http://www.inkscape.org/namespaces/inkscape"
   xmlns:sodipodi="http://sodipodi.sourceforge.net/DTD/sodipodi-0.dtd"
   xmlns="http://www.w3.org/2000/svg"
   xmlns:svg="http://www.w3.org/2000/svg"><defs
   id="defs13" /><sodipodi:namedview
   id="namedview11"
   pagecolor="#ffffff"
   bordercolor="#666666"
   borderopacity="1.0"
   inkscape:pageshadow="2"
   inkscape:pageopacity="0.0"
   inkscape:pagecheckerboard="0" />
<style
   type="text/css"
   id="style2">
	.st0{fill:#5F3F6D;}
</style>
<g
   id="g8"
   transform="translate(0,0.1)">
	<path
   class="st0"
   d="m 0.1,25.7 c 0.2,-0.6 0.6,-1 1,-1.5 C 2.3,23 3.5,21.8 4.7,20.6 5.8,19.5 7.7,20 8,21.5 8.2,22.2 8,22.8 7.5,23.4 7.3,23.6 7.1,23.8 6.9,23.9 6.9,24 7,24 7,24 c 0.1,0 0.2,0 0.3,0 6,0 12,0 18,0 1.4,0 2.4,-0.7 2.7,-1.8 0.1,-0.3 0.1,-0.6 0.1,-0.9 0,-1.8 0,-3.5 0,-5.3 0,-1 0.7,-1.7 1.7,-1.9 0.9,-0.2 1.8,0.3 2.2,1.2 0.1,0.2 0.1,0.3 0.2,0.5 0,2.1 0,4.2 0,6.4 0,0.1 0,0.1 -0.1,0.2 -0.1,0.9 -0.4,1.7 -0.8,2.4 -1.3,2.2 -3.3,3.3 -5.9,3.3 -6,0 -11.9,0 -17.9,0 -0.1,0 -0.3,0 -0.4,0 0,0 0,0.1 -0.1,0.1 0.2,0.2 0.4,0.4 0.6,0.6 1,1.1 0.5,2.8 -0.8,3.2 -0.1,0 -0.2,0.1 -0.3,0.1 -0.2,0 -0.5,0 -0.7,0 -0.6,-0.2 -1,-0.5 -1.5,-1 C 3.2,30 2.1,28.9 1,27.9 0.6,27.5 0.2,27 0,26.4 0.1,26.1 0.1,25.9 0.1,25.7 Z"
   id="path4" />
	<path
   class="st0"
   d="m 32.1,6.4 c -0.2,0.6 -0.6,1.1 -1,1.5 -1.2,1.2 -2.4,2.4 -3.6,3.6 -1.1,1.1 -3,0.6 -3.3,-0.9 -0.2,-0.7 0,-1.3 0.5,-1.9 0.2,-0.2 0.4,-0.4 0.6,-0.6 0,0 0,-0.1 0,-0.1 C 25.2,8 25.1,8 25,8 19,8 12.9,8 6.9,8 5.2,8 4.2,9.1 4.2,10.7 c 0,1.7 0,3.5 0,5.2 0,1 -0.7,1.8 -1.7,2 -0.9,0.1 -1.9,-0.4 -2.2,-1.4 0,-0.1 -0.1,-0.2 -0.1,-0.3 0,-2.1 0,-4.3 0,-6.4 0,-0.1 0,-0.1 0.1,-0.2 C 0.2,9 0.5,8.2 0.9,7.4 2.2,5.2 4.2,4 6.8,4 c 6,0 11.9,0 17.9,0 0.1,0 0.3,0 0.4,0 0,0 0,-0.1 0,-0.1 -0.2,-0.2 -0.4,-0.4 -0.6,-0.6 -0.7,-0.8 -0.7,-2 0.1,-2.8 0.3,-0.3 0.7,-0.4 1,-0.6 0.2,0 0.5,0 0.7,0 0.6,0.2 1,0.5 1.5,1 1.1,1.1 2.2,2.2 3.2,3.2 0.4,0.4 0.8,0.9 1,1.5 0.1,0.4 0.1,0.6 0.1,0.8 z"
   id="path6" />
</g>
</svg>
