<?xml version="1.0" encoding="UTF-8" standalone="no"?>
<!-- Generator: Adobe Illustrator 25.0.1, SVG Export Plug-In . SVG Version: 6.00 Build 0)  -->

<svg
   version="1.1"
   id="Laag_1"
   x="0px"
   y="0px"
   viewBox="0 0 31.001213 30.901104"
   xml:space="preserve"
   sodipodi:docname="3e2d6a934d57167e4a72312f315e6e4f.svg"
   width="31.001213"
   height="30.901104"
   xmlns:inkscape="http://www.inkscape.org/namespaces/inkscape"
   xmlns:sodipodi="http://sodipodi.sourceforge.net/DTD/sodipodi-0.dtd"
   xmlns="http://www.w3.org/2000/svg"
   xmlns:svg="http://www.w3.org/2000/svg"><defs
   id="defs11" /><sodipodi:namedview
   id="namedview9"
   pagecolor="#ffffff"
   bordercolor="#666666"
   borderopacity="1.0"
   inkscape:pageshadow="2"
   inkscape:pageopacity="0.0"
   inkscape:pagecheckerboard="0" />
<style
   type="text/css"
   id="style2">
	.st0{fill:#5F3F6D;}
</style>
<g
   id="g6"
   transform="translate(-0.49878763,-0.59889514)">
	<path
   class="st0"
   d="M 13.7,31.5 C 6.5,30.5 0.4,24.3 0.5,15.9 0.6,7.2 7.7,0.5 16.1,0.6 24.6,0.7 31.4,7.4 31.5,16 c 0,4.1 -1.3,7.8 -4.2,10.8 -2.3,2.4 -5,4 -8.3,4.7 0,-3.7 0,-7.4 0,-11.1 1,0 2,0 3,0 0.2,-1.5 0.5,-2.9 0.7,-4.4 -1.6,0 -3.1,0 -4.6,0 0,-0.9 0,-1.7 0,-2.6 0,-0.3 0,-0.6 0.1,-0.9 0.2,-1 0.8,-1.7 1.9,-1.7 0.9,-0.1 1.9,0 2.8,-0.1 0.2,0 0.3,0 0.5,0 0,-1.3 0,-2.5 0,-3.8 C 22.8,6.8 22.3,6.7 21.7,6.7 20.4,6.6 19.2,6.5 17.9,6.8 c -2.2,0.6 -3.7,2.2 -4,4.4 -0.1,1 -0.1,2.1 -0.1,3.2 0,0.5 0,1 0,1.5 -1.2,0 -2.3,0 -3.5,0 0,1.5 0,2.9 0,4.4 1.1,0 2.3,0 3.5,0 -0.1,3.8 -0.1,7.5 -0.1,11.2 z"
   id="path4" />
</g>
</svg>
