<?xml version="1.0" encoding="UTF-8" standalone="no"?>
<!-- Generator: Adobe Illustrator 25.0.1, SVG Export Plug-In . SVG Version: 6.00 Build 0)  -->

<svg
   version="1.1"
   id="Laag_1"
   x="0px"
   y="0px"
   viewBox="0 0 32 31.642534"
   xml:space="preserve"
   sodipodi:docname="bb9c7732569c3c14a7e9c7875be1577a.svg"
   width="32"
   height="31.642534"
   xmlns:inkscape="http://www.inkscape.org/namespaces/inkscape"
   xmlns:sodipodi="http://sodipodi.sourceforge.net/DTD/sodipodi-0.dtd"
   xmlns="http://www.w3.org/2000/svg"
   xmlns:svg="http://www.w3.org/2000/svg"><defs
   id="defs11" /><sodipodi:namedview
   id="namedview9"
   pagecolor="#ffffff"
   bordercolor="#666666"
   borderopacity="1.0"
   inkscape:pageshadow="2"
   inkscape:pageopacity="0.0"
   inkscape:pagecheckerboard="0" />
<style
   type="text/css"
   id="style2">
	.st0{fill:#212427;}
</style>
<g
   id="g6"
   transform="translate(-0.1,-0.26996524)">
	<path
   class="st0"
   d="m 0.1,29.4 c 0,-0.3 0,-0.6 0,-0.9 0.2,-1 0.8,-1.6 1.5,-2.3 3.3,-3.3 6.6,-6.6 9.9,-9.9 0.1,-0.1 0.2,-0.1 0.3,-0.2 C 11.6,15.9 11.6,15.9 11.5,15.8 8,12.3 4.6,8.9 1.1,5.4 0.3,4.6 0.1,3.7 0.3,2.7 c 0.2,-1.2 1,-2 2.1,-2.3 1.1,-0.3 2.2,-0.1 3,0.8 3.4,3.4 6.9,6.8 10.3,10.2 0.1,0.1 0.2,0.3 0.3,0.4 0.2,-0.2 0.2,-0.2 0.3,-0.3 2.4,-2.4 4.8,-4.8 7.2,-7.2 1.1,-1.1 2.2,-2.2 3.3,-3.3 1.2,-1.1 3.1,-0.9 4.2,0.3 1.1,1.2 1.1,3 -0.1,4.2 -3.4,3.4 -6.8,6.8 -10.3,10.3 -0.1,0.1 -0.2,0.1 -0.4,0.2 0.2,0.2 0.3,0.2 0.4,0.3 3.3,3.3 6.6,6.6 10,9.9 0.7,0.7 1.3,1.3 1.5,2.3 0,0.3 0,0.5 0,0.8 0,0.1 -0.1,0.2 -0.1,0.3 -0.3,1.2 -1,1.9 -2.2,2.2 -1.2,0.3 -2.3,0 -3.2,-0.9 -3.4,-3.4 -6.8,-6.8 -10.2,-10.3 -0.1,-0.1 -0.1,-0.2 -0.2,-0.3 0,0 -0.1,0 -0.1,0 C 16,20.4 16,20.5 15.9,20.6 12.3,24 8.9,27.4 5.6,30.8 4.8,31.6 3.9,31.9 2.8,31.9 1.5,31.8 0.5,31 0.2,29.7 0.1,29.6 0.1,29.5 0.1,29.4 Z"
   id="path4" />
</g>
</svg>
