<?xml version="1.0" encoding="UTF-8" standalone="no"?>
<!-- Generator: Adobe Illustrator 25.0.1, SVG Export Plug-In . SVG Version: 6.00 Build 0)  -->

<svg
   version="1.1"
   id="Laag_1"
   x="0px"
   y="0px"
   viewBox="0 0 26.81875 26.6"
   xml:space="preserve"
   sodipodi:docname="6fb90411cc222de9ed35cc1bd16798c4.svg"
   width="26.81875"
   height="26.6"
   xmlns:inkscape="http://www.inkscape.org/namespaces/inkscape"
   xmlns:sodipodi="http://sodipodi.sourceforge.net/DTD/sodipodi-0.dtd"
   xmlns="http://www.w3.org/2000/svg"
   xmlns:svg="http://www.w3.org/2000/svg"><defs
   id="defs15" /><sodipodi:namedview
   id="namedview13"
   pagecolor="#ffffff"
   bordercolor="#666666"
   borderopacity="1.0"
   inkscape:pageshadow="2"
   inkscape:pageopacity="0.0"
   inkscape:pagecheckerboard="0" />
<style
   type="text/css"
   id="style2">
	.st0{fill:#212427;}
</style>
<g
   id="g10"
   transform="translate(-2.78125,-2.8)">
	<path
   class="st0"
   d="m 20.7,8.1 c -2.4,0 -4.8,0 -7.2,0 -0.2,0 -0.3,0.1 -0.4,0.3 -0.7,1.5 -1.9,2.4 -3.6,2.4 C 7.8,10.8 6.6,9.9 5.9,8.4 5.7,8.1 5.6,8 5.4,8.1 5,8.1 4.5,8.1 4.1,8.1 3.3,8.1 2.8,7.5 2.8,6.8 2.7,6 3.3,5.4 4,5.4 c 0.4,0 0.9,0 1.3,0 0.2,0 0.3,0 0.4,-0.2 0.7,-1.6 1.9,-2.4 3.6,-2.4 1.7,0 3,0.9 3.7,2.4 0.1,0.2 0.2,0.2 0.4,0.2 4.8,0 9.5,0 14.3,0 0.2,0 0.3,0 0.5,0 0.7,0.1 1.2,0.7 1.1,1.4 C 29.3,7.5 28.7,8 28,8 26.9,8 25.8,8 24.8,8 23.5,8.1 22.1,8.1 20.7,8.1 Z m -11.3,0 c 0.7,0 1.3,-0.6 1.3,-1.3 C 10.7,6.1 10.1,5.5 9.4,5.5 8.7,5.4 8.1,6 8.1,6.7 c 0,0.8 0.6,1.4 1.3,1.4 z"
   id="path4" />
	<path
   class="st0"
   d="m 20.7,26.7 c -2.4,0 -4.8,0 -7.2,0 -0.2,0 -0.3,0.1 -0.4,0.3 -0.7,1.5 -1.9,2.4 -3.6,2.4 C 7.8,29.4 6.6,28.5 5.9,27 5.8,26.8 5.7,26.7 5.5,26.8 c -0.4,0 -0.8,0 -1.2,0 -0.8,0 -1.4,-0.6 -1.4,-1.4 0,-0.8 0.6,-1.3 1.4,-1.3 0.4,0 0.8,0 1.2,0 0.2,0 0.3,0 0.4,-0.2 0.7,-1.6 1.9,-2.4 3.6,-2.4 1.7,0 2.9,0.9 3.7,2.4 0.1,0.2 0.2,0.2 0.4,0.2 4.8,0 9.6,0 14.4,0 0.2,0 0.4,0 0.6,0.1 0.6,0.2 1,0.7 1,1.4 0,0.6 -0.5,1.1 -1.1,1.2 -0.2,0 -0.3,0 -0.5,0 -2.6,-0.1 -4.9,-0.1 -7.3,-0.1 z M 8.1,25.4 c 0,0.7 0.6,1.3 1.3,1.3 0.7,0 1.3,-0.6 1.3,-1.3 0,-0.7 -0.6,-1.3 -1.3,-1.3 -0.7,0 -1.3,0.6 -1.3,1.3 z"
   id="path6" />
	<path
   class="st0"
   d="m 24.1,17.4 c -1.3,0 -2.7,0 -4,0 -0.2,0 -0.3,0.1 -0.4,0.3 -0.7,1.5 -1.9,2.4 -3.7,2.4 -1.7,0 -2.9,-0.9 -3.6,-2.4 -0.1,-0.2 -0.2,-0.3 -0.4,-0.3 -2.6,0 -5.1,0 -7.7,0 -0.2,0 -0.4,0 -0.6,-0.1 -0.7,-0.2 -1,-0.8 -0.9,-1.5 0.1,-0.6 0.6,-1.1 1.3,-1.1 2.3,0 4.5,0 6.8,0 0.4,0 0.8,0 1.2,0 0.1,0 0.2,-0.1 0.3,-0.2 0.7,-1.6 2,-2.5 3.7,-2.5 1.7,0 2.9,0.9 3.7,2.5 0.1,0.2 0.2,0.2 0.4,0.2 2.6,0 5.2,0 7.7,0 0.2,0 0.4,0 0.6,0.1 0.6,0.2 1,0.8 1,1.5 -0.1,0.6 -0.6,1.1 -1.3,1.1 -1.4,0 -2.8,0 -4.1,0 0,0 0,0 0,0 z m -6.7,-1.3 c 0,-0.7 -0.6,-1.3 -1.3,-1.3 -0.7,0 -1.3,0.6 -1.3,1.3 0,0.7 0.6,1.3 1.3,1.3 0.7,0 1.3,-0.6 1.3,-1.3 z"
   id="path8" />
</g>
</svg>
