<?xml version="1.0" encoding="UTF-8" standalone="no"?>
<!-- Generator: Adobe Illustrator 25.0.1, SVG Export Plug-In . SVG Version: 6.00 Build 0)  -->

<svg
   version="1.1"
   id="Laag_1"
   x="0px"
   y="0px"
   viewBox="0 0 32.099998 29.623787"
   xml:space="preserve"
   sodipodi:docname="5243d0b247ec552428ca35419f246cea.svg"
   width="32.099998"
   height="29.623787"
   xmlns:inkscape="http://www.inkscape.org/namespaces/inkscape"
   xmlns:sodipodi="http://sodipodi.sourceforge.net/DTD/sodipodi-0.dtd"
   xmlns="http://www.w3.org/2000/svg"
   xmlns:svg="http://www.w3.org/2000/svg"><defs
   id="defs19" /><sodipodi:namedview
   id="namedview17"
   pagecolor="#ffffff"
   bordercolor="#666666"
   borderopacity="1.0"
   inkscape:pageshadow="2"
   inkscape:pageopacity="0.0"
   inkscape:pagecheckerboard="0" />
<style
   type="text/css"
   id="style2">
	.st0{fill:#FFFFFF;}
</style>
<g
   id="g14"
   transform="translate(0,-1.18105)">
	<path
   class="st0"
   d="m 32.1,14.9 c -0.1,0.7 -0.2,1.4 -0.4,2 -0.4,1.6 -1.1,3.1 -2.2,4.4 -0.3,0.4 -0.7,0.5 -1.1,0.4 -0.4,-0.1 -0.7,-0.4 -0.8,-0.8 -0.1,-0.4 -0.1,-0.8 0.2,-1.1 0.5,-0.5 0.5,-0.9 0.3,-1.5 -0.8,-2.5 -2.5,-4.3 -4.9,-5.3 0,0 -0.1,0 -0.1,0 0,0 0,0 -0.1,0 0,0.1 0,0.3 0,0.4 0,4.1 0,8.2 0,12.3 0,2.2 -1,3.7 -3,4.5 -2.4,1 -4.8,0.8 -6.9,-0.9 C 11,27.8 11,25 13,23.2 c 1.9,-1.6 5,-1.9 7.3,-0.7 0.1,0 0.2,0.1 0.3,0.2 0,-0.2 0,-0.3 0,-0.4 0,-6.6 0,-13.2 0,-19.8 0,-0.7 0.4,-1.2 1,-1.3 0.5,-0.1 1.1,0.2 1.2,0.8 0.3,1.3 1.1,2.3 2,3.1 0.8,0.8 1.8,1.4 2.8,2.1 1,0.7 2.1,1.5 2.8,2.5 0.9,1.1 1.4,2.4 1.5,3.8 0,0.1 0,0.1 0.1,0.2 0.1,0.4 0.1,0.8 0.1,1.2 z"
   id="path4" />
	<path
   class="st0"
   d="M 0.1,8.9 C 0.4,8.2 0.9,8 1.6,8 6,8 10.4,8 14.9,8 c 0.6,0 1,0.3 1.2,0.8 0.2,0.6 -0.2,1.3 -0.9,1.4 -0.2,0 -0.3,0 -0.5,0 -4.4,0 -8.7,0 -13.1,0 -0.7,0 -1.2,-0.2 -1.5,-0.9 0,0 0,-0.2 0,-0.4 z"
   id="path6" />
	<path
   class="st0"
   d="M 0.1,2.1 C 0.4,1.4 0.9,1.2 1.6,1.2 c 4.4,0 8.8,0 13.1,0 0.7,0 1.1,0.3 1.3,0.8 0.2,0.7 -0.2,1.4 -1,1.5 -0.1,0 -0.2,0 -0.3,0 -4.4,0 -8.7,0 -13.1,0 -0.7,0 -1.2,-0.2 -1.5,-0.9 0,-0.2 0,-0.4 0,-0.5 z"
   id="path8" />
	<path
   class="st0"
   d="m 0.1,22.6 c 0.3,-0.7 0.8,-0.9 1.5,-0.9 2.1,0 4.2,0 6.3,0 0.8,0 1.3,0.5 1.3,1.1 0,0.6 -0.5,1.2 -1.1,1.2 -2.3,0 -4.6,0 -6.9,0 -0.6,0 -0.9,-0.4 -1.1,-0.9 0,-0.1 0,-0.3 0,-0.5 z"
   id="path10" />
	<path
   class="st0"
   d="m 0.1,15.8 c 0.2,-0.7 0.7,-0.9 1.4,-0.9 2.2,0 4.4,0 6.5,0 0.8,0 1.4,0.8 1.1,1.5 -0.2,0.4 -0.5,0.7 -1,0.7 -2.3,0 -4.6,0 -7,0 C 0.5,17.1 0.2,16.7 0,16.2 0.1,16.1 0.1,16 0.1,15.8 Z"
   id="path12" />
</g>
</svg>
