<?xml version="1.0" encoding="UTF-8" standalone="no"?>
<!-- Generator: Adobe Illustrator 25.0.1, SVG Export Plug-In . SVG Version: 6.00 Build 0)  -->

<svg
   version="1.1"
   id="Laag_1"
   x="0px"
   y="0px"
   viewBox="0 0 26.454744 25.040001"
   xml:space="preserve"
   sodipodi:docname="54bec615158eaa1f94a8e34d0dcfc0b9.svg"
   width="26.454744"
   height="25.040001"
   xmlns:inkscape="http://www.inkscape.org/namespaces/inkscape"
   xmlns:sodipodi="http://sodipodi.sourceforge.net/DTD/sodipodi-0.dtd"
   xmlns="http://www.w3.org/2000/svg"
   xmlns:svg="http://www.w3.org/2000/svg"><defs
   id="defs13" /><sodipodi:namedview
   id="namedview11"
   pagecolor="#ffffff"
   bordercolor="#666666"
   borderopacity="1.0"
   inkscape:pageshadow="2"
   inkscape:pageopacity="0.0"
   inkscape:pagecheckerboard="0" />
<style
   type="text/css"
   id="style2">
	.st0{fill:#FFFFFF;}
</style>
<g
   id="g8"
   transform="translate(-2.7952561,-3.5)">
	<path
   class="st0"
   d="m 18.7,16.1 c 0,3.4 0,6.7 0,10.1 0,0.9 -0.3,1.7 -1.2,2.1 C 16.6,28.7 15.8,28.6 15,28 12.8,26.3 10.5,24.7 8.3,23 8.2,23.1 8,23 7.8,23 7,23 6.3,23 5.5,23 4.2,23 2.7,21.9 2.8,20.2 c 0,-2.6 0,-5.2 0,-7.9 0,-1.6 1.3,-2.7 2.7,-2.8 0.8,0 1.6,0 2.3,0 0.1,0 0.3,-0.1 0.4,-0.1 2.3,-1.8 4.6,-3.5 7,-5.3 0.5,-0.4 1,-0.6 1.6,-0.6 1,0.1 1.7,0.8 1.9,1.8 0,0.2 0,0.5 0,0.7 0,3.4 0,6.8 0,10.1 z"
   id="path4" />
	<path
   class="st0"
   d="M 23.5,16.2 C 22.9,15.6 22.3,15 21.7,14.4 21.3,14 21.2,13.6 21.4,13.1 c 0.2,-0.5 0.5,-0.8 1,-0.9 0.5,-0.1 0.9,0.1 1.2,0.4 0.5,0.5 1,1 1.5,1.5 0.1,0.1 0.1,0.1 0.2,0.2 0.6,-0.6 1.1,-1.2 1.7,-1.7 0.8,-0.7 1.9,-0.4 2.2,0.6 0.1,0.5 0,1 -0.4,1.3 -0.6,0.6 -1.1,1.1 -1.7,1.7 0.3,0.3 0.7,0.6 1,1 0.2,0.2 0.5,0.5 0.7,0.7 0.6,0.6 0.6,1.4 0,1.9 -0.5,0.5 -1.4,0.5 -1.9,0 -0.6,-0.5 -1.1,-1.1 -1.7,-1.7 -0.6,0.6 -1.1,1.1 -1.7,1.6 -0.2,0.2 -0.6,0.4 -0.9,0.5 C 22,20.3 21.5,20 21.2,19.5 21,19 21,18.4 21.4,18 c 0.5,-0.5 1,-1 1.5,-1.5 0.4,-0.2 0.5,-0.2 0.6,-0.3 z"
   id="path6" />
</g>
</svg>
