<?xml version="1.0" encoding="UTF-8" standalone="no"?>
<!-- Generator: Adobe Illustrator 25.0.1, SVG Export Plug-In . SVG Version: 6.00 Build 0)  -->

<svg
   version="1.1"
   id="Laag_1"
   x="0px"
   y="0px"
   viewBox="0 0 26.63328 20"
   xml:space="preserve"
   sodipodi:docname="d17885fcc1fed177bc5b4758b781e52d.svg"
   width="26.63328"
   height="20"
   xmlns:inkscape="http://www.inkscape.org/namespaces/inkscape"
   xmlns:sodipodi="http://sodipodi.sourceforge.net/DTD/sodipodi-0.dtd"
   xmlns="http://www.w3.org/2000/svg"
   xmlns:svg="http://www.w3.org/2000/svg"><defs
   id="defs15" /><sodipodi:namedview
   id="namedview13"
   pagecolor="#ffffff"
   bordercolor="#666666"
   borderopacity="1.0"
   inkscape:pageshadow="2"
   inkscape:pageopacity="0.0"
   inkscape:pagecheckerboard="0" />
<style
   type="text/css"
   id="style2">
	.st0{fill:#212427;}
</style>
<g
   id="g10"
   transform="translate(-2.6621707,-6.1)">
	<path
   class="st0"
   d="m 16.1,10.1 c -3.7,0 -7.5,0 -11.2,0 -1,0 -1.8,-0.6 -2,-1.5 -0.4,-1.3 0.5,-2.5 1.7,-2.5 0.1,0 0.2,0 0.2,0 7.5,0 14.9,0 22.4,0 1,0 1.8,0.5 2,1.4 0.4,1.3 -0.5,2.6 -1.9,2.6 -1.4,0 -2.7,0 -4.1,0 -2.3,0 -4.7,0 -7.1,0 z"
   id="path4" />
	<path
   class="st0"
   d="m 14.2,18.1 c -3.1,0 -6.3,0 -9.4,0 -1.2,0 -2.1,-0.9 -2,-2.1 0,-1 0.8,-1.8 1.8,-1.9 0.1,0 0.2,0 0.2,0 6.2,0 12.5,0 18.7,0 1,0 1.8,0.6 2,1.5 0.3,1.3 -0.6,2.4 -1.9,2.5 -1.7,0 -3.4,0 -5.1,0 -1.4,0 -2.9,0 -4.3,0 z"
   id="path6" />
	<path
   class="st0"
   d="m 10.4,26.1 c -1.9,0 -3.8,0 -5.7,0 -0.8,0 -1.6,-0.5 -1.9,-1.3 -0.3,-0.8 -0.1,-1.6 0.5,-2.2 0.4,-0.3 0.8,-0.5 1.3,-0.5 3.8,0 7.6,0 11.4,0 1.1,0 2,0.9 2,2 0,1.1 -0.9,2 -2,2 -1.8,0 -3.7,0 -5.6,0 z"
   id="path8" />
</g>
</svg>
