<?xml version="1.0" encoding="UTF-8" standalone="no"?>
<!-- Generator: Adobe Illustrator 25.0.1, SVG Export Plug-In . SVG Version: 6.00 Build 0)  -->

<svg
   version="1.1"
   id="Laag_1"
   x="0px"
   y="0px"
   viewBox="0 0 26 6"
   xml:space="preserve"
   sodipodi:docname="48d282d8f8814e62850a0827cbd5e64e.svg"
   width="26"
   height="6"
   xmlns:inkscape="http://www.inkscape.org/namespaces/inkscape"
   xmlns:sodipodi="http://sodipodi.sourceforge.net/DTD/sodipodi-0.dtd"
   xmlns="http://www.w3.org/2000/svg"
   xmlns:svg="http://www.w3.org/2000/svg"><defs
   id="defs15" /><sodipodi:namedview
   id="namedview13"
   pagecolor="#ffffff"
   bordercolor="#666666"
   borderopacity="1.0"
   inkscape:pageshadow="2"
   inkscape:pageopacity="0.0"
   inkscape:pagecheckerboard="0" />
<style
   type="text/css"
   id="style2">
	.st0{fill:#212427;}
</style>
<g
   id="g10"
   transform="translate(-3.1,-13.1)">
	<path
   class="st0"
   d="m 3.1,16.1 c 0,-1.6 1.3,-3 3,-3 1.7,0 3,1.3 3,3 0,1.7 -1.3,3 -3,3 -1.7,0 -3,-1.4 -3,-3 z"
   id="path4" />
	<path
   class="st0"
   d="m 13.1,16.1 c 0,-1.6 1.4,-3 3,-3 1.6,0 3,1.4 3,3 0,1.6 -1.4,3 -3,3 -1.7,0 -3,-1.4 -3,-3 z"
   id="path6" />
	<path
   class="st0"
   d="m 26.1,13.1 c 1.6,0 3,1.4 3,3 0,1.6 -1.4,3 -3,3 -1.6,0 -3,-1.4 -3,-3 0,-1.7 1.3,-3 3,-3 z"
   id="path8" />
</g>
</svg>
