<?xml version="1.0" encoding="UTF-8" standalone="no"?>
<!-- Generator: Adobe Illustrator 25.0.1, SVG Export Plug-In . SVG Version: 6.00 Build 0)  -->

<svg
   version="1.1"
   id="Laag_1"
   x="0px"
   y="0px"
   viewBox="0 0 32 32"
   xml:space="preserve"
   sodipodi:docname="ba2361fe84c5a0ef70298dcedcda23cf.svg"
   width="32"
   height="32"
   xmlns:inkscape="http://www.inkscape.org/namespaces/inkscape"
   xmlns:sodipodi="http://sodipodi.sourceforge.net/DTD/sodipodi-0.dtd"
   xmlns="http://www.w3.org/2000/svg"
   xmlns:svg="http://www.w3.org/2000/svg"><defs
   id="defs13" /><sodipodi:namedview
   id="namedview11"
   pagecolor="#ffffff"
   bordercolor="#666666"
   borderopacity="1.0"
   inkscape:pageshadow="2"
   inkscape:pageopacity="0.0"
   inkscape:pagecheckerboard="0" />
<style
   type="text/css"
   id="style2">
	.st0{fill:#212427;}
</style>
<g
   id="g8"
   transform="translate(0,-0.1)">
	<path
   class="st0"
   d="m 16.4,0.1 c 0,0 0.1,0 0.1,0.1 1,0.3 1.5,1 1.5,2 0,2.6 0,5.1 0,7.7 0,2.4 0,4.9 0,7.3 0,0.1 0,0.2 0,0.4 0.1,-0.1 0.2,-0.2 0.3,-0.3 1.1,-1.1 2.2,-2.3 3.4,-3.4 1.1,-1.1 3,-0.6 3.4,0.9 0.2,0.8 0,1.4 -0.6,2 -1.8,1.8 -3.6,3.5 -5.3,5.3 -0.5,0.5 -1.1,1.1 -1.6,1.6 -0.9,0.9 -2.1,0.9 -3,0 -2.3,-2.3 -4.6,-4.6 -7,-7 C 7,16.1 6.8,15.5 7,14.7 7.2,14 7.7,13.5 8.5,13.3 c 0.7,-0.2 1.4,0 1.9,0.6 1.1,1.1 2.2,2.2 3.3,3.3 0.1,0.1 0.1,0.2 0.2,0.3 0,0 0.1,0 0.1,0 0,-0.1 0,-0.2 0,-0.4 0,-4.8 0,-9.6 0,-14.5 0,-1.3 0.4,-2.1 1.6,-2.5 0.3,0 0.5,0 0.8,0 z"
   id="path4" />
	<path
   class="st0"
   d="m 0.1,29.7 c 0,-0.1 0.1,-0.2 0.1,-0.3 0.3,-0.8 1,-1.3 1.8,-1.3 0.1,0 0.2,0 0.4,0 9.1,0 18.2,0 27.2,0 1.4,0 1.9,0.3 2.4,1.7 0,0.2 0,0.4 0,0.6 -0.1,0.2 -0.1,0.4 -0.2,0.6 -0.3,0.6 -0.8,0.9 -1.5,1.1 -9.5,0 -19.1,0 -28.6,0 C 1.2,32 0.7,31.7 0.4,31.3 0.2,31.1 0.1,30.8 0,30.5 0.1,30.2 0.1,29.9 0.1,29.7 Z"
   id="path6" />
</g>
</svg>
