<?xml version="1.0" encoding="UTF-8" standalone="no"?>
<!-- Generator: Adobe Illustrator 25.0.1, SVG Export Plug-In . SVG Version: 6.00 Build 0)  -->

<svg
   version="1.1"
   id="Laag_1"
   x="0px"
   y="0px"
   viewBox="0 0 30.845806 32"
   xml:space="preserve"
   sodipodi:docname="1055373a08a32d6ceec11a68974078ea.svg"
   width="30.845806"
   height="32"
   xmlns:inkscape="http://www.inkscape.org/namespaces/inkscape"
   xmlns:sodipodi="http://sodipodi.sourceforge.net/DTD/sodipodi-0.dtd"
   xmlns="http://www.w3.org/2000/svg"
   xmlns:svg="http://www.w3.org/2000/svg"><defs
   id="defs11" /><sodipodi:namedview
   id="namedview9"
   pagecolor="#ffffff"
   bordercolor="#666666"
   borderopacity="1.0"
   inkscape:pageshadow="2"
   inkscape:pageopacity="0.0"
   inkscape:pagecheckerboard="0" />
<style
   type="text/css"
   id="style2">
	.st0{fill:#212427;}
</style>
<g
   id="g6"
   transform="translate(-0.53083517,-0.1)">
	<path
   class="st0"
   d="m 30.1,32.1 c -0.2,0 -0.4,0 -0.6,0 -0.5,-0.2 -0.9,-0.6 -1.3,-1 -2.3,-2.4 -4.7,-4.8 -7,-7.3 -0.1,-0.1 -0.1,-0.2 -0.2,-0.3 -0.1,0.1 -0.2,0.1 -0.2,0.2 -2.1,1.4 -4.5,2.2 -7.1,2.2 C 11,25.9 8.5,25.2 6.2,23.6 4.2,22.2 2.7,20.4 1.7,18.2 0.6,15.9 0.3,13.4 0.7,10.9 1.1,8.2 2.3,5.9 4.1,4 6,2 8.3,0.8 10.9,0.3 11.4,0.2 12,0.1 12.5,0.1 c 0.6,0 1.1,0 1.7,0 0.3,0 0.6,0.1 0.9,0.1 2.9,0.4 5.4,1.7 7.5,3.7 2,2.1 3.3,4.5 3.6,7.4 0.3,2.5 -0.1,5 -1.2,7.3 -0.5,0.9 -1.1,1.8 -1.7,2.8 0.2,0.2 0.6,0.4 0.8,0.7 2.2,2.3 4.4,4.6 6.7,6.9 0.5,0.5 0.7,1.1 0.5,1.9 -0.1,0.7 -0.6,1 -1.2,1.2 z M 13.5,3.4 C 8.3,3.4 4,7.7 4,13 c 0,5.3 4.3,9.6 9.6,9.6 5.3,0 9.5,-4.3 9.5,-9.5 0,-5.4 -4.3,-9.7 -9.6,-9.7 z"
   id="path4" />
</g>
</svg>
