<?xml version="1.0" encoding="UTF-8" standalone="no"?>
<!-- Generator: Adobe Illustrator 25.0.1, SVG Export Plug-In . SVG Version: 6.00 Build 0)  -->

<svg
   version="1.1"
   id="Laag_1"
   x="0px"
   y="0px"
   viewBox="0 0 32 24.234205"
   xml:space="preserve"
   sodipodi:docname="0caff098fd7de34249d079379ca71e3c.svg"
   width="32"
   height="24.234205"
   xmlns:inkscape="http://www.inkscape.org/namespaces/inkscape"
   xmlns:sodipodi="http://sodipodi.sourceforge.net/DTD/sodipodi-0.dtd"
   xmlns="http://www.w3.org/2000/svg"
   xmlns:svg="http://www.w3.org/2000/svg"><defs
   id="defs21" /><sodipodi:namedview
   id="namedview19"
   pagecolor="#ffffff"
   bordercolor="#666666"
   borderopacity="1.0"
   inkscape:pageshadow="2"
   inkscape:pageopacity="0.0"
   inkscape:pagecheckerboard="0" />
<style
   type="text/css"
   id="style2">
	.st0{fill:#212427;}
</style>
<g
   id="g16"
   transform="translate(-0.1,-3.9657942)">
	<path
   class="st0"
   d="m 32.1,16.4 c 0,0 0,0.1 -0.1,0.1 -0.3,0.8 -0.8,1.2 -1.6,1.2 -0.7,0 -1.3,0 -2,0 -6.4,0 -12.8,0 -19.2,0 -0.7,0 -1.3,-0.3 -1.6,-1 -0.4,-1 0.2,-2.1 1.3,-2.2 0.2,0 0.4,0 0.5,0 6.9,0 13.8,0 20.6,0 1,0 1.7,0.3 2,1.3 0.1,0.2 0.1,0.4 0.1,0.6 z"
   id="path4" />
	<path
   class="st0"
   d="m 32.1,6.4 c 0,0.1 -0.1,0.2 -0.1,0.3 -0.3,0.6 -0.7,0.9 -1.4,1 -0.1,0 -0.2,0 -0.2,0 -7,0 -14,0 -21,0 C 9,7.7 8.6,7.6 8.2,7.3 7.6,6.9 7.4,6.2 7.5,5.6 7.8,4.9 8.3,4.5 9,4.4 c 0.1,0 0.3,0 0.4,0 6.9,0 13.8,0 20.7,0 1.1,0 1.5,0.3 2,1.3 0,0.3 0,0.5 0,0.7 z"
   id="path6" />
	<path
   class="st0"
   d="m 32.1,26.4 c -0.2,0.7 -0.6,1.2 -1.3,1.3 -0.1,0 -0.2,0 -0.4,0 -7.1,0 -14.1,0 -21.2,0 -1.2,0 -2,-1 -1.6,-2.1 0.2,-0.6 0.8,-1.1 1.5,-1.1 0.1,0 0.3,0 0.4,0 6.9,0 13.7,0 20.6,0 1,0 1.7,0.3 2,1.3 0,0.2 0,0.4 0,0.6 z"
   id="path8" />
	<path
   class="st0"
   d="M 0.1,5.8 C 0.1,5.7 0.2,5.6 0.2,5.5 0.5,4.5 1.5,3.8 2.6,4 3.7,4.2 4.4,5.1 4.4,6.1 4.4,7.2 3.6,8.1 2.5,8.2 1.5,8.4 0.5,7.7 0.2,6.7 0.2,6.6 0.1,6.5 0.1,6.4 0.1,6.3 0.1,6 0.1,5.8 Z"
   id="path10" />
	<path
   class="st0"
   d="m 0.1,25.6 c 0.2,-0.4 0.3,-0.7 0.5,-1 0.6,-0.8 1.7,-1 2.6,-0.5 0.9,0.4 1.3,1.4 1.1,2.4 -0.2,0.9 -1,1.6 -2,1.7 -1,0 -1.9,-0.6 -2.1,-1.6 0,-0.1 -0.1,-0.2 -0.1,-0.2 0,-0.3 0,-0.5 0,-0.8 z"
   id="path12" />
	<path
   class="st0"
   d="m 0.1,15.7 c 0,-0.1 0.1,-0.2 0.1,-0.3 0.3,-1 1.3,-1.7 2.4,-1.5 1,0.2 1.8,1.1 1.8,2.1 0,1 -0.8,1.9 -1.8,2.1 -1.1,0.2 -2.1,-0.5 -2.4,-1.5 0,-0.1 -0.1,-0.2 -0.1,-0.3 0,-0.1 0,-0.4 0,-0.6 z"
   id="path14" />
</g>
</svg>
