<?xml version="1.0" encoding="UTF-8" standalone="no"?>
<!-- Generator: Adobe Illustrator 25.0.1, SVG Export Plug-In . SVG Version: 6.00 Build 0)  -->

<svg
   version="1.1"
   id="Laag_1"
   x="0px"
   y="0px"
   viewBox="0 0 32.200001 25.29314"
   xml:space="preserve"
   sodipodi:docname="a361ad0698022a0a0f711710da35522c.svg"
   width="32.200001"
   height="25.29314"
   xmlns:inkscape="http://www.inkscape.org/namespaces/inkscape"
   xmlns:sodipodi="http://sodipodi.sourceforge.net/DTD/sodipodi-0.dtd"
   xmlns="http://www.w3.org/2000/svg"
   xmlns:svg="http://www.w3.org/2000/svg"><defs
   id="defs15" /><sodipodi:namedview
   id="namedview13"
   pagecolor="#ffffff"
   bordercolor="#666666"
   borderopacity="1.0"
   inkscape:pageshadow="2"
   inkscape:pageopacity="0.0"
   inkscape:pagecheckerboard="0" />
<style
   type="text/css"
   id="style2">
	.st0{fill:#FFFFFF;}
</style>
<g
   id="g10"
   transform="translate(0,-3.46)">
	<path
   class="st0"
   d="m 0.1,13.1 c 0.3,-0.9 0.9,-1.2 1.8,-1.2 1.2,0 2.4,0 3.6,0 0.2,0 0.4,-0.1 0.5,-0.2 2.5,-2.1 5.1,-4.2 7.6,-6.3 0.8,-0.6 1.7,-0.6 2.2,0.2 0.2,0.3 0.3,0.6 0.3,1 0,0.7 0,1.5 0,2.2 0,5.7 0,11.4 0,17.1 0,0.9 -0.5,1.5 -1.3,1.6 C 14.3,27.6 14,27.4 13.6,27.1 11.7,25.5 9.8,23.9 7.8,22.3 7.2,21.8 6.6,21.3 5.9,20.8 5.8,20.7 5.6,20.6 5.4,20.6 c -1.2,0 -2.3,0 -3.5,0 C 1,20.6 0.3,20.4 0,19.5 0.1,17.3 0.1,15.2 0.1,13.1 Z"
   id="path4" />
	<path
   class="st0"
   d="m 32.1,17.2 c -0.1,0.7 -0.1,1.3 -0.3,2 -0.6,3.4 -1.9,6.4 -4.1,9 -0.5,0.7 -1.4,0.7 -2,0.2 -0.8,-0.6 -1,-1.5 -0.4,-2.2 0.7,-1 1.4,-1.9 2,-3 0.8,-1.6 1.3,-3.3 1.6,-5.1 0.5,-4 -0.5,-7.6 -2.8,-10.9 C 25.8,6.7 25.4,6.3 25.1,5.9 24.6,5.3 24.7,4.6 25.3,4 c 0.6,-0.6 1.3,-0.7 2,-0.3 0.1,0.1 0.2,0.2 0.3,0.3 2.4,2.7 3.9,5.8 4.4,9.4 0.1,0.6 0.2,1.3 0.2,1.9 -0.1,0.6 -0.1,1.3 -0.1,1.9 z"
   id="path6" />
	<path
   class="st0"
   d="m 25,16.2 c 0,2.6 -0.8,4.9 -2.3,6.9 -0.5,0.7 -1.4,0.8 -2,0.4 -0.8,-0.6 -1,-1.4 -0.6,-2.2 0.4,-0.7 0.9,-1.5 1.2,-2.3 1,-2.8 0.6,-5.4 -1.1,-7.8 -0.2,-0.3 -0.4,-0.6 -0.5,-0.9 -0.2,-0.7 0.2,-1.5 1,-1.9 0.6,-0.2 1.3,0 1.8,0.6 1.7,2.1 2.5,4.5 2.5,7.2 z"
   id="path8" />
</g>
</svg>
