<?xml version="1.0" encoding="utf-8"?>
<!-- Generator: Adobe Illustrator 25.0.1, SVG Export Plug-In . SVG Version: 6.00 Build 0)  -->
<svg version="1.1"
	 id="Laag_1" sodipodi:docname="6fb90411cc222de9ed35cc1bd16798c4.svg" xmlns:inkscape="http://www.inkscape.org/namespaces/inkscape" xmlns:sodipodi="http://sodipodi.sourceforge.net/DTD/sodipodi-0.dtd" xmlns:svg="http://www.w3.org/2000/svg"
	 xmlns="http://www.w3.org/2000/svg" xmlns:xlink="http://www.w3.org/1999/xlink" x="0px" y="0px" viewBox="0 0 26.8 26.6"
	 style="enable-background:new 0 0 26.8 26.6;" xml:space="preserve">
<style type="text/css">
	.st0{fill:#FFFFFF;}
</style>
<sodipodi:namedview  bordercolor="#666666" borderopacity="1.0" id="namedview13" inkscape:pagecheckerboard="0" inkscape:pageopacity="0.0" inkscape:pageshadow="2" pagecolor="#ffffff">
	</sodipodi:namedview>
<g id="g10" transform="translate(-2.78125,-2.8)">
	<path id="path4" class="st0" d="M20.7,8.1c-2.4,0-4.8,0-7.2,0c-0.2,0-0.3,0.1-0.4,0.3c-0.7,1.5-1.9,2.4-3.6,2.4
		c-1.7,0-2.9-0.9-3.6-2.4C5.7,8.1,5.6,8,5.4,8.1c-0.4,0-0.9,0-1.3,0c-0.8,0-1.3-0.6-1.3-1.3C2.7,6,3.3,5.4,4,5.4c0.4,0,0.9,0,1.3,0
		c0.2,0,0.3,0,0.4-0.2c0.7-1.6,1.9-2.4,3.6-2.4s3,0.9,3.7,2.4c0.1,0.2,0.2,0.2,0.4,0.2c4.8,0,9.5,0,14.3,0c0.2,0,0.3,0,0.5,0
		c0.7,0.1,1.2,0.7,1.1,1.4C29.3,7.5,28.7,8,28,8c-1.1,0-2.2,0-3.2,0C23.5,8.1,22.1,8.1,20.7,8.1z M9.4,8.1c0.7,0,1.3-0.6,1.3-1.3
		c0-0.7-0.6-1.3-1.3-1.3C8.7,5.4,8.1,6,8.1,6.7C8.1,7.5,8.7,8.1,9.4,8.1z"/>
	<path id="path6" class="st0" d="M20.7,26.7c-2.4,0-4.8,0-7.2,0c-0.2,0-0.3,0.1-0.4,0.3c-0.7,1.5-1.9,2.4-3.6,2.4
		c-1.7,0-2.9-0.9-3.6-2.4c-0.1-0.2-0.2-0.3-0.4-0.2c-0.4,0-0.8,0-1.2,0c-0.8,0-1.4-0.6-1.4-1.4s0.6-1.3,1.4-1.3c0.4,0,0.8,0,1.2,0
		c0.2,0,0.3,0,0.4-0.2c0.7-1.6,1.9-2.4,3.6-2.4s2.9,0.9,3.7,2.4c0.1,0.2,0.2,0.2,0.4,0.2c4.8,0,9.6,0,14.4,0c0.2,0,0.4,0,0.6,0.1
		c0.6,0.2,1,0.7,1,1.4c0,0.6-0.5,1.1-1.1,1.2c-0.2,0-0.3,0-0.5,0C25.4,26.7,23.1,26.7,20.7,26.7z M8.1,25.4c0,0.7,0.6,1.3,1.3,1.3
		s1.3-0.6,1.3-1.3c0-0.7-0.6-1.3-1.3-1.3S8.1,24.7,8.1,25.4z"/>
	<path id="path8" class="st0" d="M24.1,17.4c-1.3,0-2.7,0-4,0c-0.2,0-0.3,0.1-0.4,0.3c-0.7,1.5-1.9,2.4-3.7,2.4
		c-1.7,0-2.9-0.9-3.6-2.4c-0.1-0.2-0.2-0.3-0.4-0.3c-2.6,0-5.1,0-7.7,0c-0.2,0-0.4,0-0.6-0.1c-0.7-0.2-1-0.8-0.9-1.5
		c0.1-0.6,0.6-1.1,1.3-1.1c2.3,0,4.5,0,6.8,0c0.4,0,0.8,0,1.2,0c0.1,0,0.2-0.1,0.3-0.2c0.7-1.6,2-2.5,3.7-2.5s2.9,0.9,3.7,2.5
		c0.1,0.2,0.2,0.2,0.4,0.2c2.6,0,5.2,0,7.7,0c0.2,0,0.4,0,0.6,0.1c0.6,0.2,1,0.8,1,1.5c-0.1,0.6-0.6,1.1-1.3,1.1
		C26.8,17.4,25.4,17.4,24.1,17.4C24.1,17.4,24.1,17.4,24.1,17.4z M17.4,16.1c0-0.7-0.6-1.3-1.3-1.3c-0.7,0-1.3,0.6-1.3,1.3
		c0,0.7,0.6,1.3,1.3,1.3C16.8,17.4,17.4,16.8,17.4,16.1z"/>
</g>
</svg>
