<?xml version="1.0" encoding="UTF-8" standalone="no"?>
<!-- Generator: Adobe Illustrator 25.0.1, SVG Export Plug-In . SVG Version: 6.00 Build 0)  -->

<svg
   version="1.1"
   id="Laag_1"
   x="0px"
   y="0px"
   viewBox="0 0 30.1 24.5"
   xml:space="preserve"
   sodipodi:docname="c9db2c2c85d7ec97f808ee270b31b4f9.svg"
   width="30.1"
   height="24.5"
   xmlns:inkscape="http://www.inkscape.org/namespaces/inkscape"
   xmlns:sodipodi="http://sodipodi.sourceforge.net/DTD/sodipodi-0.dtd"
   xmlns="http://www.w3.org/2000/svg"
   xmlns:svg="http://www.w3.org/2000/svg"><defs
   id="defs17" /><sodipodi:namedview
   id="namedview15"
   pagecolor="#ffffff"
   bordercolor="#666666"
   borderopacity="1.0"
   inkscape:pageshadow="2"
   inkscape:pageopacity="0.0"
   inkscape:pagecheckerboard="0" />
<style
   type="text/css"
   id="style2">
	.st0{fill:#212427;}
</style>
<g
   id="g12"
   transform="translate(-1,-4.6)">
	<path
   class="st0"
   d="m 11.5,29.1 c -3.1,0 -6.1,0 -9.2,0 -0.9,0 -1.3,-0.4 -1.3,-1.3 0.1,-4.9 3.8,-9.2 8.6,-10 5.7,-1 11,2.6 12.1,8.3 0.1,0.6 0.2,1.2 0.2,1.8 0,0.8 -0.4,1.2 -1.2,1.2 -3,0 -6.1,0 -9.2,0 z"
   id="path4" />
	<path
   class="st0"
   d="m 5.8,10.3 c 0,-3.2 2.6,-5.7 5.8,-5.7 3.2,0 5.7,2.6 5.7,5.8 0,3.1 -2.6,5.6 -5.8,5.6 -3.2,0 -5.8,-2.6 -5.7,-5.7 z"
   id="path6" />
	<path
   class="st0"
   d="m 19.8,18.8 c 1.9,-1.1 3.9,-1.3 6,-0.7 3.1,0.9 5.3,3.8 5.3,7 0,0.7 -0.4,1.1 -1.1,1.1 -2,0 -4,0 -5.9,0 -0.1,0 -0.3,0 -0.3,-0.2 -0.5,-2.8 -1.8,-5.2 -4,-7.2 0,0 0,0 0,0 z"
   id="path8" />
	<path
   class="st0"
   d="m 23.6,8.1 c 2.3,0 4.2,1.9 4.2,4.3 0,2.3 -1.9,4.2 -4.3,4.2 -2.3,0 -4.2,-1.9 -4.2,-4.3 0,-2.3 1.9,-4.2 4.3,-4.2 z"
   id="path10" />
</g>
</svg>
