<?xml version="1.0" encoding="UTF-8" standalone="no"?>
<!-- Generator: Adobe Illustrator 25.0.1, SVG Export Plug-In . SVG Version: 6.00 Build 0)  -->

<svg
   version="1.1"
   id="Laag_1"
   x="0px"
   y="0px"
   viewBox="0 0 32 32"
   xml:space="preserve"
   sodipodi:docname="11e5a2a8b53d41921dcdff9c187431d4.svg"
   width="32"
   height="32"
   xmlns:inkscape="http://www.inkscape.org/namespaces/inkscape"
   xmlns:sodipodi="http://sodipodi.sourceforge.net/DTD/sodipodi-0.dtd"
   xmlns="http://www.w3.org/2000/svg"
   xmlns:svg="http://www.w3.org/2000/svg"><defs
   id="defs13" /><sodipodi:namedview
   id="namedview11"
   pagecolor="#ffffff"
   bordercolor="#666666"
   borderopacity="1.0"
   inkscape:pageshadow="2"
   inkscape:pageopacity="0.0"
   inkscape:pagecheckerboard="0" />
<style
   type="text/css"
   id="style2">
	.st0{fill:#212427;}
</style>
<g
   id="g8"
   transform="translate(0,-0.1)">
	<path
   class="st0"
   d="m 17.1,32.1 c -0.7,0 -1.3,0 -2,0 -0.1,0 -0.1,0 -0.2,-0.1 -1.4,-0.1 -2.7,-0.3 -4,-0.8 C 5.1,29 1.6,24.9 0.3,18.8 0.2,18.2 0.1,17.6 0,17 0,16.3 0,15.7 0,15 0.1,14.4 0.1,13.8 0.2,13.2 1.4,6.8 6.5,1.6 12.9,0.4 c 0.7,-0.1 1.5,-0.2 2.2,-0.3 0.6,0 1.3,0 1.9,0 0.1,0 0.2,0 0.2,0.1 2.5,0.1 4.8,0.8 6.8,2 4.3,2.5 6.9,6.2 7.8,11.1 0.1,0.6 0.2,1.2 0.2,1.8 0,0.6 0,1.3 0,1.9 0,0.1 0,0.2 -0.1,0.3 -0.1,0.6 -0.1,1.3 -0.3,1.9 -1.2,6.4 -6.5,11.5 -12.9,12.6 -0.5,0.1 -1.1,0.2 -1.6,0.3 z M 16.1,10 c -1.7,0 -3.4,0 -5.1,0 -2,0 -3.3,1.4 -3.3,3.3 0,1.8 0,3.6 0,5.3 0,2 1.4,3.3 3.3,3.3 3.4,0 6.8,0 10.2,0 2,0 3.3,-1.4 3.3,-3.3 0,-1.8 0,-3.6 0,-5.3 0,-0.3 0,-0.6 -0.1,-0.8 C 24.1,11 22.8,10 21.2,10 c -1.7,0 -3.4,0 -5.1,0 z"
   id="path4" />
	<path
   class="st0"
   d="m 13.9,13.5 c 1.5,0.9 2.9,1.7 4.4,2.6 -1.5,0.9 -2.9,1.7 -4.4,2.6 0,-1.8 0,-3.5 0,-5.2 z"
   id="path6" />
</g>
</svg>
