<?xml version="1.0" encoding="UTF-8" standalone="no"?>
<!-- Generator: Adobe Illustrator 25.0.1, SVG Export Plug-In . SVG Version: 6.00 Build 0)  -->

<svg
   version="1.1"
   id="Laag_1"
   x="0px"
   y="0px"
   viewBox="0 0 32.099998 30.637501"
   xml:space="preserve"
   sodipodi:docname="8aa02bf3a08666e4719e3b7602db8301.svg"
   width="32.099998"
   height="30.637501"
   xmlns:inkscape="http://www.inkscape.org/namespaces/inkscape"
   xmlns:sodipodi="http://sodipodi.sourceforge.net/DTD/sodipodi-0.dtd"
   xmlns="http://www.w3.org/2000/svg"
   xmlns:svg="http://www.w3.org/2000/svg"><defs
   id="defs11" /><sodipodi:namedview
   id="namedview9"
   pagecolor="#ffffff"
   bordercolor="#666666"
   borderopacity="1.0"
   inkscape:pageshadow="2"
   inkscape:pageopacity="0.0"
   inkscape:pagecheckerboard="0" />
<style
   type="text/css"
   id="style2">
	.st0{fill:#212427;}
</style>
<g
   id="g6"
   transform="translate(0,-0.8)">
	<path
   class="st0"
   d="m 32.1,13.2 c -0.2,0.6 -0.6,0.9 -1,1.3 -2.1,1.8 -4.2,3.7 -6.3,5.5 -0.2,0.2 -0.2,0.3 -0.2,0.6 0.7,2.9 1.3,5.7 2,8.6 0.2,0.8 0,1.5 -0.6,1.9 -0.7,0.4 -1.3,0.4 -2,0 -2.5,-1.5 -5.1,-3 -7.6,-4.5 -0.2,-0.1 -0.3,-0.1 -0.5,0 -2.5,1.5 -5,3 -7.5,4.5 -0.5,0.3 -1,0.4 -1.5,0.3 C 6,31.1 5.5,30.3 5.8,29.3 6.4,26.5 7,23.8 7.7,21 7.8,20.5 7.8,20.2 7.3,19.8 5,18 2.9,16.1 0.8,14.3 0.4,14 0.2,13.6 0,13.2 0,13 0,12.8 0,12.6 c 0.3,-1 1,-1.4 2,-1.4 0.2,0 0.4,0 0.6,-0.1 2.6,-0.2 5.2,-0.5 7.9,-0.7 0.2,0 0.3,-0.1 0.4,-0.3 C 12,7.4 13.2,4.7 14.4,2 14.7,1.3 15.2,0.8 16,0.8 c 0.8,0 1.3,0.5 1.6,1.2 1.2,2.7 2.3,5.4 3.5,8.1 0.1,0.2 0.2,0.3 0.4,0.3 2.4,0.2 4.8,0.4 7.2,0.6 0.6,0.1 1.1,0.1 1.7,0.2 0.8,0.1 1.3,0.5 1.5,1.3 0,0 0,0.1 0.1,0.1 0.1,0.2 0.1,0.4 0.1,0.6 z m -16,-10 C 16,3.4 16,3.5 15.9,3.6 c -1.1,2.5 -2.1,5 -3.2,7.5 -0.3,0.7 -0.8,1.1 -1.6,1.2 -2.4,0.2 -4.7,0.4 -7.1,0.6 -0.5,0 -1,0.1 -1.6,0.1 0.1,0.1 0.2,0.2 0.3,0.3 2.2,1.9 4.2,3.7 6.3,5.5 0.6,0.5 0.8,1.1 0.6,1.8 C 9.1,22.8 8.6,25 8.1,27.3 8,27.9 7.8,28.5 7.7,29.1 7.8,29 7.9,29 8,28.9 c 2.3,-1.4 4.7,-2.8 7,-4.2 0.8,-0.5 1.4,-0.5 2.2,0 2.3,1.4 4.6,2.8 7,4.2 0.1,0.1 0.2,0.1 0.3,0.2 0,-0.1 0,-0.1 0,-0.2 -0.6,-2.7 -1.2,-5.5 -1.9,-8.2 -0.2,-0.8 0,-1.4 0.6,-1.9 1.7,-1.5 3.4,-3 5.1,-4.5 0.4,-0.4 0.8,-0.7 1.3,-1.1 -0.1,0 -0.2,0 -0.3,-0.1 C 26.6,12.8 23.8,12.6 21.1,12.4 20.3,12.3 19.7,12 19.4,11.2 18.8,9.8 18.2,8.3 17.6,6.9 17.1,5.7 16.6,4.5 16.1,3.2 Z"
   id="path4" />
</g>
</svg>
