<?xml version="1.0" encoding="UTF-8" standalone="no"?>
<!-- Generator: Adobe Illustrator 25.0.1, SVG Export Plug-In . SVG Version: 6.00 Build 0)  -->

<svg
   version="1.1"
   id="Laag_1"
   x="0px"
   y="0px"
   viewBox="0 0 32 31.9"
   xml:space="preserve"
   sodipodi:docname="c6740008c4c76aef99954d338b1459ad.svg"
   width="32"
   height="31.9"
   xmlns:inkscape="http://www.inkscape.org/namespaces/inkscape"
   xmlns:sodipodi="http://sodipodi.sourceforge.net/DTD/sodipodi-0.dtd"
   xmlns="http://www.w3.org/2000/svg"
   xmlns:svg="http://www.w3.org/2000/svg"><defs
   id="defs11" /><sodipodi:namedview
   id="namedview9"
   pagecolor="#ffffff"
   bordercolor="#666666"
   borderopacity="1.0"
   inkscape:pageshadow="2"
   inkscape:pageopacity="0.0"
   inkscape:pagecheckerboard="0" />
<style
   type="text/css"
   id="style2">
	.st0{fill:#FFFFFF;}
</style>
<g
   id="g6"
   transform="translate(-0.1,-0.2)">
	<path
   class="st0"
   d="m 28.8,32.1 c -0.3,0 -0.6,0 -0.9,0 0,0 0,0 -0.1,0 -1.7,-0.2 -3.2,-1.8 -3.1,-3.9 0.1,-3.3 0,-6.6 0,-9.9 0,-0.1 0,-0.2 0,-0.3 -0.4,0.6 -1,1.1 -1.6,1.5 C 19.2,22 15.4,24.5 11.5,27 9.6,28.2 7.7,29.5 5.8,30.7 3.7,32 1,31 0.3,28.7 0.2,28.5 0.2,28.3 0.1,28.1 c 0,-8 0,-15.9 0,-23.9 C 0.1,4.1 0.1,4.1 0.2,4 0.4,3 0.9,2.1 1.9,1.6 3.2,0.8 4.6,0.8 5.9,1.6 11.6,5.3 17.3,9 23,12.7 c 0.7,0.4 1.3,0.9 1.7,1.6 0,0 0,0 0.1,0 0,-0.1 0,-0.2 0,-0.3 0,-3.4 0,-6.7 0,-10.1 0,-1.3 0.5,-2.3 1.6,-3 0.5,-0.3 1.1,-0.5 1.6,-0.7 0.3,0 0.7,0 1,0 0.1,0 0.1,0.1 0.2,0.1 1,0.1 1.8,0.7 2.4,1.7 0.2,0.4 0.3,0.9 0.5,1.4 0,8.5 0,17 0,25.5 0,0.1 0,0.2 -0.1,0.3 -0.2,1.1 -0.8,1.9 -1.8,2.5 -0.4,0.1 -0.9,0.2 -1.4,0.4 z"
   id="path4" />
</g>
</svg>
