<?xml version="1.0" encoding="UTF-8" standalone="no"?>
<!-- Generator: Adobe Illustrator 25.0.1, SVG Export Plug-In . SVG Version: 6.00 Build 0)  -->

<svg
   version="1.1"
   id="Laag_1"
   x="0px"
   y="0px"
   viewBox="0 0 25.6 32.200001"
   xml:space="preserve"
   sodipodi:docname="3753338194d9271fba434ac40a955db3.svg"
   width="25.6"
   height="32.200001"
   xmlns:inkscape="http://www.inkscape.org/namespaces/inkscape"
   xmlns:sodipodi="http://sodipodi.sourceforge.net/DTD/sodipodi-0.dtd"
   xmlns="http://www.w3.org/2000/svg"
   xmlns:svg="http://www.w3.org/2000/svg"><defs
   id="defs13" /><sodipodi:namedview
   id="namedview11"
   pagecolor="#ffffff"
   bordercolor="#666666"
   borderopacity="1.0"
   inkscape:pageshadow="2"
   inkscape:pageopacity="0.0"
   inkscape:pagecheckerboard="0" />
<style
   type="text/css"
   id="style2">
	.st0{fill:#FFFFFF;}
</style>
<g
   id="g8"
   transform="translate(-3.3,-0.1)">
	<path
   class="st0"
   d="m 7.2,0.1 c 0.3,0 0.7,0 1,0 0.1,0 0.1,0 0.2,0.1 2.1,0.3 3.7,2 3.8,4.2 0.1,1.4 0,2.8 0,4.2 0,6.3 0,12.6 0,19 0,1.8 -0.7,3.2 -2.3,4.1 -0.5,0.3 -1.1,0.4 -1.7,0.6 -0.3,0 -0.7,0 -1,0 C 6.8,32.2 6.3,32.1 5.9,31.9 4.1,31.1 3.3,29.6 3.3,27.7 c 0,-5.9 0,-11.8 0,-17.7 0,-1.8 0,-3.6 0,-5.3 C 3.4,2.9 4.2,1.6 5.8,0.8 6.2,0.3 6.7,0.2 7.2,0.1 Z"
   id="path4" />
	<path
   class="st0"
   d="m 23.9,0.1 c 0.3,0 0.7,0 1,0 0.3,0.1 0.6,0.1 0.9,0.2 1.9,0.6 3.1,2.3 3.1,4.3 0,5.5 0,11.1 0,16.6 0,2.2 0,4.4 0,6.5 0,1.8 -0.9,3.1 -2.5,3.9 -0.4,0.2 -1,0.3 -1.4,0.5 -0.3,0 -0.7,0 -1,0 -0.1,0 -0.1,0 -0.2,-0.1 -2,-0.3 -3.7,-2.1 -3.7,-4.1 -0.1,-1.4 0,-2.8 0,-4.2 0,-6.3 0,-12.7 0,-19 0,-1.8 0.7,-3.2 2.3,-4.1 0.4,-0.2 1,-0.3 1.5,-0.5 z"
   id="path6" />
</g>
</svg>
