<?xml version="1.0" encoding="UTF-8" standalone="no"?>
<!-- Generator: Adobe Illustrator 25.0.1, SVG Export Plug-In . SVG Version: 6.00 Build 0)  -->

<svg
   version="1.1"
   id="Laag_1"
   x="0px"
   y="0px"
   viewBox="0 0 32.099998 30.535742"
   xml:space="preserve"
   sodipodi:docname="6c367216e3fa456296bdce829588b616.svg"
   width="32.099998"
   height="30.535742"
   xmlns:inkscape="http://www.inkscape.org/namespaces/inkscape"
   xmlns:sodipodi="http://sodipodi.sourceforge.net/DTD/sodipodi-0.dtd"
   xmlns="http://www.w3.org/2000/svg"
   xmlns:svg="http://www.w3.org/2000/svg"><defs
   id="defs11" /><sodipodi:namedview
   id="namedview9"
   pagecolor="#ffffff"
   bordercolor="#666666"
   borderopacity="1.0"
   inkscape:pageshadow="2"
   inkscape:pageopacity="0.0"
   inkscape:pagecheckerboard="0" />
<style
   type="text/css"
   id="style2">
	.st0{fill:#212427;}
</style>
<g
   id="g6"
   transform="translate(0,-0.85)">
	<path
   class="st0"
   d="m 32.1,13.2 c -0.2,0.7 -0.7,1.3 -1.2,1.8 -1.8,1.7 -3.6,3.5 -5.4,5.3 -0.2,0.2 -0.2,0.3 -0.2,0.5 0.5,2.7 0.9,5.4 1.4,8.1 0.1,0.4 0,0.8 -0.1,1.1 -0.3,1.1 -1.3,1.6 -2.4,1.3 -0.3,-0.1 -0.6,-0.2 -0.9,-0.4 -2.3,-1.2 -4.6,-2.4 -7,-3.7 -0.2,-0.1 -0.3,-0.1 -0.5,0 -2.3,1.2 -4.7,2.5 -7,3.7 -0.3,0.2 -0.6,0.3 -1,0.4 -1.3,0.3 -2.3,-0.5 -2.4,-1.9 0,-0.6 0.1,-1.1 0.2,-1.7 0.4,-2.3 0.8,-4.7 1.2,-7 0,-0.2 0,-0.3 -0.2,-0.4 C 4.8,18.5 3,16.8 1.2,15 0.7,14.5 0.2,13.9 0,13.2 0,13 0,12.8 0,12.6 0.3,11.5 1.2,11.1 2.2,10.9 4.6,10.6 6.9,10.2 9.3,9.9 10.1,9.8 10.5,9.5 10.8,8.8 11.8,6.6 12.9,4.5 14,2.4 14.2,2 14.5,1.6 14.8,1.3 c 0.7,-0.6 1.6,-0.6 2.3,0 0.3,0.3 0.6,0.7 0.8,1.1 1.2,2.3 2.3,4.7 3.5,7.1 0.1,0.3 0.3,0.4 0.6,0.4 2.6,0.4 5.3,0.7 7.9,1.1 1,0.1 1.8,0.6 2,1.7 0.2,0.1 0.2,0.3 0.2,0.5 z M 30.2,12.9 C 30,12.8 29.8,12.8 29.7,12.8 29.1,12.7 28.4,12.6 27.8,12.5 25.6,12.2 23.4,11.8 21.2,11.5 20.7,11.4 20.4,11.2 20.2,10.8 19,8.3 17.7,5.8 16.5,3.2 16.4,3 16.3,2.8 16.1,2.6 15.9,2.9 15.8,3 15.7,3.2 14.4,5.7 13.2,8.3 12,10.8 c -0.2,0.4 -0.5,0.6 -1,0.7 -2.6,0.4 -5.2,0.8 -7.8,1.1 -0.4,0.1 -0.8,0.1 -1.3,0.2 0.2,0.2 0.3,0.4 0.5,0.6 2,2 4,3.9 6.1,5.9 0.3,0.3 0.5,0.7 0.4,1.2 -0.5,2.6 -0.9,5.2 -1.3,7.8 -0.1,0.4 -0.1,0.8 -0.2,1.3 0.3,-0.1 0.5,-0.2 0.7,-0.3 2.5,-1.3 5,-2.6 7.4,-3.9 0.5,-0.2 0.9,-0.3 1.3,0 2.5,1.3 5,2.6 7.5,4 0.2,0.1 0.4,0.1 0.6,0.2 0,-0.2 0,-0.4 0,-0.5 -0.5,-2.8 -1,-5.6 -1.5,-8.5 -0.1,-0.5 0,-0.9 0.4,-1.2 2,-1.9 4,-3.9 6,-5.8 0.1,-0.3 0.2,-0.5 0.4,-0.7 z"
   id="path4" />
</g>
</svg>
