<?xml version="1.0" standalone="no"?>
<!DOCTYPE svg PUBLIC "-//W3C//DTD SVG 20010904//EN"
 "http://www.w3.org/TR/2001/REC-SVG-20010904/DTD/svg10.dtd">
<svg version="1.0" xmlns="http://www.w3.org/2000/svg"
 width="640.000000pt" height="480.000000pt" viewBox="0 0 640.000000 480.000000"
 preserveAspectRatio="xMidYMid meet">

<g transform="translate(0.000000,480.000000) scale(0.100000,-0.100000)"
fill="#000000" stroke="none">
<path d="M1076 3938 c-8 -13 -22 -56 -31 -95 -21 -85 -35 -109 -59 -100 -21 8
-16 44 15 111 26 57 25 77 -3 72 -23 -3 -29 -15 -59 -113 -8 -30 -18 -43 -30
-43 -27 0 -30 14 -14 59 16 46 15 48 -23 24 -44 -28 -72 -55 -72 -73 0 -16 10
-23 83 -54 20 -9 52 -22 70 -30 71 -31 344 -112 407 -121 14 -2 61 -11 105
-19 44 -9 95 -16 113 -16 l34 0 -7 43 c-4 23 -12 51 -17 61 -10 18 -12 17 -30
-17 -10 -20 -23 -37 -29 -37 -11 0 -11 7 10 104 13 57 6 89 -16 84 -16 -3 -30
-37 -53 -125 -11 -45 -34 -57 -45 -24 -3 10 6 54 20 97 37 116 33 145 -14 107
-15 -13 -25 -37 -32 -83 -6 -36 -16 -76 -22 -90 -14 -30 -40 -33 -45 -6 -4 18
14 90 28 111 3 6 15 36 25 67 14 43 16 61 8 69 -28 28 -42 1 -92 -176 -6 -22
-15 -46 -20 -54 -13 -21 -41 -5 -41 23 0 23 4 37 31 101 16 39 39 116 39 130
0 29 -37 16 -51 -17 -8 -18 -14 -35 -15 -38 0 -3 -3 -12 -6 -20 -3 -8 -14 -46
-24 -85 -14 -52 -24 -71 -38 -73 -17 -4 -18 1 -13 44 3 27 17 78 31 113 29 74
33 111 11 111 -22 0 -42 -37 -65 -125 -11 -44 -23 -88 -26 -97 -3 -10 -14 -18
-25 -18 -26 0 -25 45 2 113 37 92 39 98 39 112 0 23 -38 18 -54 -7z"/>
<path d="M764 3598 c4 -46 11 -134 16 -196 9 -112 19 -142 47 -142 13 0 226
-68 278 -89 26 -10 73 -25 154 -47 l64 -17 21 28 c11 16 26 37 31 47 6 9 50
72 98 138 48 67 86 124 83 127 -2 3 -19 8 -38 13 -18 5 -55 15 -83 23 -53 16
-131 39 -280 81 -49 15 -124 37 -165 50 -41 13 -100 30 -130 37 -30 7 -59 16
-64 21 -6 4 -17 8 -24 8 -13 0 -14 -14 -8 -82z"/>
<path d="M801 3198 c-4 -13 -11 -40 -14 -61 -6 -42 -13 -37 88 -72 28 -9 70
-23 95 -30 25 -8 90 -27 145 -44 55 -17 102 -31 106 -31 10 0 50 93 42 100 -4
4 -62 24 -128 45 -111 34 -300 101 -318 112 -4 2 -11 -6 -16 -19z"/>
<path d="M750 2997 c-12 -56 -24 -110 -41 -184 -6 -27 -14 -66 -19 -88 -5 -22
-18 -80 -28 -130 -11 -49 -26 -119 -32 -155 -7 -36 -21 -99 -31 -140 -10 -41
-21 -96 -24 -121 -2 -26 -7 -53 -10 -60 -9 -27 -16 -75 -22 -147 -5 -72 -5
-72 28 -103 30 -28 53 -70 66 -125 8 -32 74 -99 128 -130 49 -27 53 -27 280
-34 217 -7 233 -9 286 -33 65 -29 112 -67 144 -117 24 -39 64 -143 70 -187 7
-52 33 -158 48 -201 36 -103 139 -237 211 -274 81 -41 211 -10 232 56 15 44 1
126 -45 266 -74 222 -76 333 -10 413 48 58 98 79 187 79 41 -1 78 -4 81 -9 3
-4 14 -9 24 -11 17 -3 40 -14 107 -54 32 -18 140 -110 300 -255 23 -22 99 -53
127 -53 8 0 39 12 70 27 60 29 131 94 232 213 109 127 132 143 246 177 53 15
122 18 611 21 l551 3 17 -26 c15 -23 22 -25 89 -25 113 0 147 -8 147 -35 0
-44 19 -49 231 -53 l199 -4 0 41 0 41 118 0 117 0 3 90 4 90 -121 0 -120 0 -3
38 -3 37 -189 3 c-165 2 -191 0 -207 -14 -11 -10 -19 -28 -19 -40 0 -23 -2
-23 -117 -26 -112 -3 -118 -4 -128 -26 l-10 -23 -215 6 c-527 16 -770 11 -910
-17 -30 -6 -60 -12 -65 -14 -6 -1 -37 -10 -70 -20 -56 -17 -70 -28 -225 -185
-221 -224 -218 -223 -390 -69 -39 36 -82 74 -93 85 -56 53 -174 123 -254 152
-74 26 -215 24 -273 -4 -61 -30 -144 -105 -168 -151 -18 -35 -23 -53 -37 -122
-9 -42 25 -158 81 -282 29 -65 51 -118 48 -118 -2 0 2 -13 11 -30 33 -64 8
-120 -54 -120 -21 0 -51 7 -68 15 -44 22 -115 103 -140 160 -21 48 -28 78 -53
215 -39 213 -125 356 -257 428 -75 41 -142 52 -316 52 -176 0 -268 15 -318 51
-16 11 -29 29 -29 40 0 15 7 19 36 19 33 0 73 28 74 53 0 4 9 26 19 50 11 23
27 62 35 87 8 25 36 104 61 175 25 72 61 173 79 225 18 52 45 124 59 160 14
36 46 124 70 195 25 72 48 137 52 146 10 26 -26 43 -175 83 -30 8 -93 26 -140
39 -149 43 -136 45 -150 -16z m219 -173 c25 -32 26 -55 6 -116 -21 -60 -65
-103 -98 -94 -58 14 -61 139 -5 202 37 41 69 44 97 8z"/>
<path d="M4130 2540 c-24 -24 -26 -53 -4 -74 27 -28 62 -19 82 20 10 18 8 27
-9 48 -25 31 -42 33 -69 6z"/>
<path d="M3438 2539 c-33 -19 -13 -89 25 -89 22 0 57 31 57 50 0 19 -35 50
-55 50 -5 0 -18 -5 -27 -11z"/>
<path d="M1150 2290 l0 -230 30 0 30 0 0 90 0 90 56 0 c30 0 64 5 75 10 32 18
50 67 50 137 0 109 -28 133 -162 133 l-79 0 0 -230z m162 143 c22 -20 23 -70
1 -95 -11 -12 -30 -18 -60 -18 l-43 0 0 65 0 65 42 0 c24 0 49 -7 60 -17z"/>
<path d="M2010 2289 l0 -230 27 3 c23 3 27 8 30 48 5 69 12 90 28 90 8 0 15
-5 15 -11 0 -5 8 -29 19 -52 10 -23 21 -50 24 -59 4 -12 17 -18 37 -18 36 0
36 6 -7 100 -47 103 -47 108 -8 171 19 32 35 60 35 63 0 3 -15 6 -32 6 -28 0
-37 -7 -61 -45 -16 -25 -33 -45 -38 -45 -5 0 -9 47 -9 105 l0 105 -30 0 -30 0
0 -231z"/>
<path d="M3170 2491 c-32 -26 -35 -33 -35 -83 0 -72 21 -102 101 -140 36 -17
70 -40 75 -50 15 -28 3 -65 -26 -84 -36 -23 -80 -4 -97 42 -12 34 -22 39 -52
28 -21 -8 -20 -25 4 -78 24 -50 52 -66 120 -66 63 0 95 27 107 90 10 47 1 124
-17 144 -10 13 -44 31 -112 61 -64 27 -61 105 4 105 29 0 68 -30 68 -52 0 -4
13 -8 30 -8 28 0 29 2 23 33 -7 39 -18 54 -54 73 -46 24 -100 18 -139 -15z"/>
<path d="M4930 2290 l0 -230 98 0 c118 0 154 17 173 79 16 54 4 122 -26 151
-24 22 -24 23 -6 49 38 55 31 124 -16 161 -22 17 -40 20 -124 20 l-99 0 0
-230z m190 141 c28 -53 -2 -91 -72 -91 l-48 0 0 55 0 55 55 0 c43 0 56 -4 65
-19z m5 -184 c18 -19 20 -67 2 -90 -12 -17 -32 -21 -94 -18 l-33 1 0 64 0 65
55 -4 c32 -2 61 -9 70 -18z"/>
<path d="M5815 2488 c-27 -15 -35 -28 -35 -60 0 -16 -4 -28 -10 -28 -5 0 -10
-18 -10 -40 0 -22 5 -40 10 -40 6 0 10 -43 10 -110 0 -104 1 -112 25 -135 42
-42 85 -28 85 29 0 16 -3 26 -6 23 -4 -3 -15 -2 -25 4 -16 8 -19 22 -19 99 0
83 1 90 20 90 17 0 20 7 20 40 0 33 -3 40 -19 40 -17 0 -20 8 -23 49 -3 46 -4
49 -23 39z"/>
<path d="M1548 2400 c-46 -8 -64 -23 -89 -71 -38 -76 -15 -229 39 -258 37 -20
106 -14 129 12 72 78 74 211 4 290 -24 28 -42 34 -83 27z m60 -100 c21 -40 11
-139 -16 -161 -64 -51 -122 73 -76 162 13 25 20 30 47 27 22 -2 36 -11 45 -28z"/>
<path d="M2355 2402 c-60 -7 -95 -63 -101 -158 -5 -76 15 -133 58 -169 25 -21
37 -24 67 -19 113 19 155 231 63 316 -32 30 -47 35 -87 30z m41 -80 c49 -32
43 -171 -8 -187 -50 -17 -86 41 -74 118 10 62 47 93 82 69z"/>
<path d="M1740 2165 l0 -235 25 0 c25 0 25 1 25 80 0 80 6 93 30 65 17 -21 73
-19 93 3 61 68 63 234 4 300 -26 29 -73 29 -104 0 -22 -20 -29 -16 -24 15 0 4
-10 7 -24 7 l-25 0 0 -235z m136 154 c26 -29 28 -157 1 -183 -44 -44 -92 23
-82 114 10 83 43 111 81 69z"/>
<path d="M2588 2377 c-40 -34 -51 -65 -52 -147 0 -84 16 -126 60 -155 89 -58
178 24 173 158 -3 77 -13 108 -46 141 -34 34 -96 36 -135 3z m109 -77 c7 -14
13 -47 13 -73 0 -81 -46 -122 -92 -80 -24 21 -25 128 -2 161 21 31 64 26 81
-8z"/>
<path d="M2822 2233 l3 -168 28 -3 27 -3 1 98 c0 124 14 169 51 166 22 -1 28
4 33 27 4 16 4 34 0 40 -9 15 -41 12 -59 -6 -14 -14 -18 -14 -38 0 -47 33 -49
28 -46 -151z"/>
<path d="M3561 2246 c-1 -85 2 -162 5 -170 3 -9 17 -16 30 -16 24 0 24 1 24
110 0 121 14 170 50 170 39 0 50 -36 50 -162 l0 -118 25 0 26 0 -2 148 c-1
126 -3 150 -19 170 -21 26 -81 30 -100 7 -7 -8 -16 -15 -21 -15 -5 0 -9 7 -9
15 0 10 -10 15 -29 15 l-29 0 -1 -154z"/>
<path d="M3868 2370 c-12 -17 -23 -38 -26 -48 -21 -100 -7 -195 35 -237 30
-29 54 -32 89 -9 32 21 38 15 29 -35 -9 -52 -40 -64 -81 -32 -35 28 -74 28
-74 0 0 -69 105 -112 170 -68 39 26 49 81 50 277 l0 182 -30 0 c-20 0 -30 -5
-30 -15 0 -8 -5 -15 -10 -15 -6 0 -13 7 -16 15 -4 10 -20 15 -45 15 -31 0 -43
-6 -61 -30z m117 -60 c19 -37 18 -122 -2 -150 -17 -24 -56 -26 -74 -3 -17 20
-17 129 0 161 18 33 57 29 76 -8z"/>
<path d="M4122 2233 l3 -168 28 -3 27 -3 0 170 0 171 -30 0 -30 0 2 -167z"/>
<path d="M4250 2230 l0 -170 29 0 29 0 4 124 c4 132 12 156 53 156 32 0 37
-18 43 -157 5 -120 5 -123 28 -123 31 0 36 22 33 143 -3 116 -13 166 -37 185
-22 17 -68 15 -97 -4 -23 -15 -25 -15 -25 0 0 11 -9 16 -30 16 l-30 0 0 -170z"/>
<path d="M4560 2376 c-43 -47 -54 -197 -19 -256 36 -59 82 -78 109 -45 7 8 19
15 28 15 11 0 13 -9 9 -41 -3 -23 -11 -46 -19 -50 -20 -13 -56 -10 -65 5 -4 8
-24 18 -45 24 -36 10 -36 9 -32 -17 9 -50 37 -75 88 -79 117 -9 126 10 126
274 0 187 -1 194 -20 194 -11 0 -20 -7 -20 -15 0 -8 -6 -15 -14 -15 -7 0 -19
7 -26 15 -20 24 -73 19 -100 -9z m97 -51 c47 -33 35 -174 -16 -188 -53 -14
-83 122 -39 178 23 29 27 30 55 10z"/>
<path d="M5303 2385 c-64 -45 -71 -249 -11 -305 44 -41 154 -17 160 35 0 8 1
20 2 27 1 7 -10 15 -24 18 -19 5 -28 1 -35 -15 -12 -24 -47 -31 -63 -13 -6 7
-13 25 -17 40 l-7 27 78 3 c91 3 94 7 75 94 -15 68 -51 104 -100 104 -20 0
-46 -7 -58 -15z m85 -58 c6 -6 13 -24 17 -40 7 -27 7 -27 -45 -27 -51 0 -52 1
-46 26 13 48 50 70 74 41z"/>
<path d="M5541 2376 c-26 -28 -25 -69 2 -74 11 -2 25 5 33 17 17 23 44 27 62
9 21 -21 14 -48 -15 -59 -78 -31 -93 -41 -108 -70 -28 -54 -1 -128 52 -141 13
-3 37 2 57 13 32 17 36 17 44 3 11 -20 59 -15 53 6 -2 8 -7 77 -10 152 -7 159
-12 167 -97 168 -41 0 -55 -5 -73 -24z m110 -163 c7 -42 4 -61 -15 -80 -26
-28 -31 -28 -56 -3 -16 16 -18 24 -9 43 12 28 77 59 80 40z"/>
<path d="M3440 2226 l0 -166 25 0 c33 0 36 17 33 185 l-3 140 -27 3 -28 3 0
-165z"/>
<path d="M5502 1668 l3 -92 85 -1 85 0 3 93 3 92 -91 0 -91 0 3 -92z"/>
<path d="M5753 1753 c-10 -4 -8 -135 2 -170 5 -16 86 7 110 30 26 26 17 107
-11 107 -8 0 -14 4 -14 8 0 10 -72 30 -87 25z"/>
</g>
</svg>
