<?xml version="1.0" encoding="UTF-8" standalone="no"?>
<!-- Generator: Adobe Illustrator 25.0.1, SVG Export Plug-In . SVG Version: 6.00 Build 0)  -->

<svg
   version="1.1"
   x="0px"
   y="0px"
   viewBox="0 0 131.31615 22.200001"
   xml:space="preserve"
   id="svg62"
   sodipodi:docname="339336c96ca291a1d50b9aa6644a0a49.svg"
   width="131.31615"
   height="22.200001"
   xmlns:inkscape="http://www.inkscape.org/namespaces/inkscape"
   xmlns:sodipodi="http://sodipodi.sourceforge.net/DTD/sodipodi-0.dtd"
   xmlns="http://www.w3.org/2000/svg"
   xmlns:svg="http://www.w3.org/2000/svg"><defs
   id="defs66" /><sodipodi:namedview
   id="namedview64"
   pagecolor="#ffffff"
   bordercolor="#666666"
   borderopacity="1.0"
   inkscape:pageshadow="2"
   inkscape:pageopacity="0.0"
   inkscape:pagecheckerboard="0" />
<style
   type="text/css"
   id="style2">
	.st0{display:none;}
	.st1{display:inline;}
	.st2{fill:none;}
	.st3{fill-rule:evenodd;clip-rule:evenodd;fill:#F3603C;}
	.st4{opacity:0.5;fill-rule:evenodd;clip-rule:evenodd;fill:#F3603C;enable-background:new    ;}
	.st5{stroke:#000000;stroke-miterlimit:10;}
</style>
<g
   id="Laag_1"
   class="st0"
   transform="translate(-0.38384994,-1.8)">
	<g
   class="st1"
   id="g12">
		<path
   class="st2"
   d="M 0,0"
   id="path4" />
		<g
   id="g10">
			<path
   class="st3"
   d="m 2.8,10.3 c 1.5,0 2.8,1.3 2.8,2.9 0,1.6 -1.2,2.9 -2.8,2.9 C 1.2,16 0,14.7 0,13.1 0,11.6 1.2,10.3 2.8,10.3 Z M 2.8,0 C 4.3,0 5.6,1.3 5.6,2.9 5.6,4.5 4.4,5.8 2.8,5.8 1.2,5.8 0,4.4 0,2.9 0,1.3 1.2,0 2.8,0 Z m 10,0 c 1.5,0 2.8,1.3 2.8,2.9 0,1.6 -1.2,2.9 -2.8,2.9 C 11.3,5.8 10,4.5 10,2.9 10,1.3 11.3,0 12.8,0 Z"
   id="path6" />
			<ellipse
   class="st4"
   cx="12.8"
   cy="13.3"
   rx="2.8"
   ry="2.9000001"
   id="ellipse8" />
		</g>
	</g>
</g>
<g
   id="Laag_2"
   transform="translate(-0.38384994,-1.8)">
	<g
   id="g53">
		<g
   id="g51">
			<path
   d="M 2.5,11.2 V 2 H 6.3 C 6.7,2 7.1,2.1 7.4,2.3 7.7,2.4 8,2.7 8.3,2.9 8.6,3.1 8.7,3.5 8.9,3.8 9,4.2 9.1,4.6 9.1,4.9 9.1,5.4 9,5.9 8.8,6.3 8.5,6.8 8.2,7.2 7.8,7.5 7.4,7.8 6.9,7.9 6.4,7.9 H 3.6 v 3.3 z M 3.6,6.9 H 6.3 C 6.6,6.9 6.9,6.8 7.1,6.6 7.3,6.4 7.5,6.2 7.7,5.9 7.8,5.6 7.9,5.3 7.9,4.9 7.9,4.5 7.8,4.2 7.7,3.9 7.6,3.6 7.3,3.5 7,3.3 6.8,3.1 6.5,3.1 6.2,3.1 H 3.6 Z"
   id="path15" />
			<path
   d="m 13.3,11.3 c -0.5,0 -1,-0.1 -1.4,-0.3 C 11.5,10.8 11.1,10.6 10.8,10.2 10.5,9.9 10.3,9.5 10.1,9.1 10,8.8 9.9,8.3 9.9,7.9 9.9,7.4 10,7 10.1,6.6 c 0.2,-0.4 0.4,-0.8 0.7,-1.1 0.3,-0.3 0.7,-0.6 1.1,-0.8 0.4,-0.2 0.9,-0.3 1.4,-0.3 0.5,0 1,0.1 1.4,0.3 0.4,0.2 0.8,0.4 1.1,0.8 0.3,0.3 0.5,0.7 0.7,1.1 0.2,0.4 0.2,0.9 0.2,1.3 0,0.5 -0.1,0.9 -0.2,1.3 -0.2,0.4 -0.4,0.8 -0.7,1.1 -0.3,0.3 -0.7,0.6 -1.1,0.8 -0.5,0.1 -0.9,0.2 -1.4,0.2 z M 11,7.9 c 0,0.5 0.1,0.9 0.3,1.3 0.2,0.4 0.5,0.7 0.8,0.9 0.3,0.2 0.7,0.3 1.1,0.3 0.4,0 0.8,-0.1 1.1,-0.3 C 14.6,9.9 14.9,9.6 15.1,9.2 15.3,8.8 15.4,8.4 15.4,7.9 15.4,7.4 15.3,7 15.1,6.6 14.9,6.2 14.6,5.9 14.3,5.7 14,5.5 13.6,5.4 13.2,5.4 12.8,5.4 12.4,5.5 12.1,5.7 11.8,5.9 11.5,6.2 11.3,6.6 11.1,7 11,7.4 11,7.9 Z"
   id="path17" />
			<path
   d="m 21.7,11.3 c -0.6,0 -1,-0.1 -1.5,-0.4 -0.4,-0.3 -0.8,-0.6 -1,-1 V 14 H 18 V 4.5 h 1 v 1.3 c 0.3,-0.4 0.6,-0.7 1,-1 0.4,-0.3 0.9,-0.4 1.4,-0.4 0.5,0 0.9,0.1 1.3,0.3 0.4,0.2 0.7,0.4 1,0.8 0.3,0.3 0.5,0.7 0.7,1.1 0.2,0.4 0.2,0.8 0.2,1.3 0,0.6 -0.1,1.2 -0.4,1.7 -0.3,0.5 -0.6,0.9 -1.1,1.3 -0.3,0.3 -0.8,0.4 -1.4,0.4 z m -0.4,-1 c 0.3,0 0.6,-0.1 0.9,-0.2 C 22.5,10 22.7,9.8 22.9,9.5 23.1,9.3 23.2,9 23.3,8.7 23.4,8.4 23.5,8.1 23.5,7.8 23.5,7.5 23.4,7.2 23.3,6.9 23.2,6.6 23,6.3 22.8,6.1 22.6,5.9 22.3,5.7 22.1,5.6 21.8,5.5 21.5,5.4 21.2,5.4 21,5.4 20.8,5.4 20.6,5.5 20.4,5.6 20.2,5.7 20,5.8 19.8,5.9 19.6,6.1 19.5,6.3 19.4,6.5 19.3,6.7 19.2,6.9 v 1.9 c 0.1,0.3 0.3,0.6 0.5,0.8 0.2,0.2 0.5,0.4 0.7,0.6 0.2,0.2 0.6,0.1 0.9,0.1 z"
   id="path19" />
			<path
   d="M 30.8,11.2 28.5,7.9 27.2,9.1 v 2.1 H 26.1 V 1.8 h 1.1 V 8 l 3.5,-3.4 h 1.2 l -2.7,2.8 2.8,3.9 h -1.2 z"
   id="path21" />
			<path
   d="M 36,11.3 C 35.5,11.3 35,11.2 34.6,11 34.2,10.8 33.8,10.6 33.5,10.2 33.2,10 33,9.6 32.8,9.2 32.6,8.8 32.6,8.3 32.6,7.9 32.6,7.4 32.7,7 32.8,6.6 33,6.2 33.2,5.8 33.5,5.5 33.8,5.2 34.2,4.9 34.6,4.7 35,4.5 35.5,4.4 36,4.4 c 0.5,0 1,0.1 1.4,0.3 0.4,0.2 0.8,0.4 1.1,0.8 0.3,0.3 0.5,0.7 0.7,1.1 0.2,0.4 0.2,0.9 0.2,1.3 0,0.5 -0.1,0.9 -0.2,1.3 -0.2,0.4 -0.4,0.8 -0.7,1.1 -0.3,0.3 -0.7,0.6 -1.1,0.8 -0.5,0.1 -0.9,0.2 -1.4,0.2 z M 33.7,7.9 c 0,0.5 0.1,0.9 0.3,1.3 0.2,0.4 0.5,0.7 0.8,0.9 0.3,0.2 0.7,0.3 1.1,0.3 0.4,0 0.8,-0.1 1.1,-0.3 C 37.3,9.9 37.6,9.6 37.8,9.2 38,8.8 38.1,8.4 38.1,7.9 38.1,7.4 38,7 37.8,6.6 37.6,6.2 37.3,5.9 37,5.7 36.7,5.5 36.3,5.4 35.9,5.4 35.5,5.4 35.1,5.5 34.8,5.7 34.5,5.9 34.3,6.2 34,6.6 33.8,7 33.7,7.4 33.7,7.9 Z"
   id="path23" />
			<path
   d="m 43.7,11.3 c -0.5,0 -1,-0.1 -1.4,-0.3 C 41.9,10.8 41.5,10.6 41.2,10.2 41,10 40.7,9.6 40.6,9.2 40.4,8.8 40.4,8.3 40.4,7.9 40.4,7.4 40.5,7 40.6,6.6 40.8,6.2 41,5.8 41.3,5.5 41.6,5.2 42,4.9 42.4,4.7 c 0.4,-0.2 0.9,-0.3 1.4,-0.3 0.5,0 1,0.1 1.4,0.3 0.4,0.2 0.8,0.4 1.1,0.8 0.3,0.3 0.5,0.7 0.7,1.1 0.2,0.4 0.2,0.9 0.2,1.3 0,0.5 -0.1,0.9 -0.2,1.3 -0.2,0.4 -0.4,0.8 -0.7,1.1 -0.3,0.3 -0.7,0.6 -1.1,0.8 -0.5,0.1 -1,0.2 -1.5,0.2 z M 41.5,7.9 c 0,0.5 0.1,0.9 0.3,1.3 0.2,0.4 0.5,0.7 0.8,0.9 0.3,0.2 0.7,0.3 1.1,0.3 0.4,0 0.8,-0.1 1.1,-0.3 C 45.1,9.9 45.4,9.6 45.6,9.2 45.8,8.8 45.9,8.4 45.9,7.9 45.9,7.4 45.8,7 45.6,6.6 45.4,6.2 45.1,5.9 44.8,5.7 44.5,5.5 44.1,5.4 43.7,5.4 43.3,5.4 42.9,5.5 42.6,5.7 42.3,5.9 42,6.2 41.8,6.6 41.6,7 41.5,7.4 41.5,7.9 Z"
   id="path25" />
			<path
   d="m 52,5.4 c -0.6,0 -1.1,0.2 -1.5,0.4 -0.4,0.3 -0.7,0.7 -0.9,1.2 v 4.2 H 48.5 V 4.5 h 1.1 V 6 c 0.2,-0.5 0.5,-0.8 0.9,-1.1 0.4,-0.3 0.8,-0.4 1.2,-0.5 0.1,0 0.2,0 0.2,0 0,0 0.1,0 0.2,0 v 1 z"
   id="path27" />
			<path
   d="M 62,3.9 C 61.9,3.8 61.8,3.7 61.6,3.6 61.4,3.5 61.2,3.4 61,3.3 60.8,3.2 60.6,3.1 60.3,3.1 60,3 59.8,3 59.5,3 58.8,3 58.3,3.1 57.9,3.4 57.5,3.7 57.4,4 57.4,4.5 c 0,0.3 0.1,0.6 0.3,0.8 0.2,0.2 0.4,0.3 0.8,0.5 0.4,0.1 0.8,0.2 1.4,0.4 0.6,0.1 1.2,0.3 1.7,0.5 0.5,0.2 0.8,0.5 1.1,0.8 0.3,0.3 0.4,0.8 0.4,1.3 0,0.4 -0.1,0.8 -0.3,1.1 -0.2,0.3 -0.4,0.6 -0.7,0.8 -0.3,0.2 -0.7,0.4 -1.1,0.5 -0.4,0.1 -0.8,0.1 -1.3,0.1 -0.5,0 -0.9,0 -1.4,-0.1 C 57.9,11.1 57.4,11 57,10.8 56.6,10.6 56.2,10.4 55.9,10.1 l 0.6,-1 c 0.1,0.1 0.3,0.3 0.5,0.4 0.2,0.1 0.5,0.3 0.7,0.4 0.3,0.1 0.6,0.2 0.9,0.3 0.3,0.1 0.7,0.1 1,0.1 0.7,0 1.2,-0.1 1.5,-0.4 0.3,-0.3 0.5,-0.6 0.5,-1 C 61.6,8.6 61.5,8.3 61.3,8.1 61.1,7.9 60.8,7.7 60.4,7.6 60,7.5 59.5,7.3 59,7.2 58.4,7 57.9,6.9 57.4,6.7 57,6.5 56.7,6.3 56.5,6 56.3,5.7 56.2,5.3 56.2,4.8 56.2,4.2 56.3,3.7 56.6,3.3 56.9,2.9 57.3,2.6 57.8,2.4 58.3,2.1 58.9,2 59.5,2 c 0.4,0 0.8,0 1.2,0.1 0.4,0.1 0.7,0.2 1,0.4 0.3,0.1 0.6,0.3 0.8,0.5 z"
   id="path29" />
			<path
   d="M 64.3,3.2 V 1.8 h 1.1 v 1.4 z m 0,8 V 4.4 h 1.1 v 6.7 h -1.1 z"
   id="path31" />
			<path
   d="M 73.1,11.2 H 72 V 7.4 C 72,6.7 71.9,6.2 71.7,5.8 71.5,5.5 71.1,5.3 70.7,5.3 70.4,5.3 70.1,5.4 69.8,5.5 69.5,5.7 69.2,5.9 69,6.1 68.8,6.4 68.6,6.7 68.5,7 v 4 H 67.4 V 4.5 h 1 v 1.4 c 0.2,-0.3 0.4,-0.6 0.7,-0.8 0.3,-0.2 0.6,-0.4 1,-0.5 0.4,-0.1 0.7,-0.2 1.1,-0.2 0.4,0 0.7,0.1 1,0.2 0.3,0.1 0.5,0.3 0.6,0.6 0.1,0.3 0.3,0.5 0.3,0.9 0.1,0.3 0.1,0.7 0.1,1.1 v 4 z"
   id="path33" />
			<path
   d="M 77.5,11.3 C 77,11.3 76.6,11.2 76.2,11 75.8,10.8 75.5,10.6 75.2,10.2 74.9,9.9 74.7,9.5 74.6,9.1 74.4,8.7 74.4,8.3 74.4,7.8 c 0,-0.5 0.1,-0.9 0.2,-1.3 0.1,-0.4 0.4,-0.8 0.6,-1.1 0.3,-0.3 0.6,-0.6 1,-0.8 0.4,-0.2 0.8,-0.3 1.3,-0.3 0.6,0 1,0.1 1.5,0.4 0.4,0.3 0.8,0.6 1.1,1 V 4.5 h 1 v 6.6 c 0,0.6 -0.2,1.2 -0.5,1.6 -0.3,0.4 -0.7,0.8 -1.2,1 -0.5,0.2 -1.1,0.3 -1.7,0.3 -0.8,0 -1.4,-0.1 -1.9,-0.4 -0.5,-0.3 -0.9,-0.6 -1.2,-1.1 l 0.7,-0.6 c 0.3,0.4 0.6,0.7 1,0.9 0.4,0.2 0.9,0.3 1.4,0.3 0.4,0 0.8,-0.1 1.1,-0.2 0.3,-0.1 0.6,-0.4 0.8,-0.7 0.2,-0.3 0.3,-0.7 0.3,-1.1 V 10 c -0.2,0.4 -0.6,0.7 -1,1 -0.4,0.2 -0.9,0.3 -1.4,0.3 z m 0.4,-0.9 c 0.2,0 0.5,0 0.7,-0.1 C 78.8,10.2 79,10 79.2,9.9 79.4,9.8 79.5,9.6 79.7,9.4 79.8,9.2 79.9,9 80,8.8 V 6.9 C 79.9,6.6 79.7,6.3 79.5,6.1 79.3,5.9 79,5.7 78.7,5.5 78.4,5.3 78.1,5.3 77.8,5.3 77.5,5.3 77.1,5.4 76.9,5.5 76.6,5.6 76.4,5.8 76.2,6.1 76,6.4 75.8,6.7 75.7,7 c -0.1,0.3 -0.2,0.6 -0.2,0.9 0,0.3 0.1,0.7 0.2,0.9 0.1,0.2 0.3,0.6 0.5,0.8 0.2,0.2 0.5,0.4 0.7,0.5 0.2,0.1 0.7,0.3 1,0.3 z"
   id="path35" />
			<path
   d="M 82.9,3.2 V 1.8 H 84 v 1.4 z m 0,8 V 4.4 H 84 v 6.7 h -1.1 z"
   id="path37" />
			<path
   d="M 91.7,11.2 H 90.6 V 7.4 C 90.6,6.7 90.5,6.2 90.3,5.8 90.1,5.5 89.7,5.3 89.3,5.3 89,5.3 88.7,5.4 88.4,5.5 88,5.8 87.8,6 87.5,6.2 87.3,6.5 87.1,6.8 87,7.1 v 4 H 85.9 V 4.5 h 1 v 1.4 c 0.2,-0.3 0.4,-0.6 0.7,-0.8 0.3,-0.2 0.6,-0.4 1,-0.5 0.4,-0.1 0.7,-0.2 1.1,-0.2 0.4,0 0.7,0.1 1,0.2 0.3,0.1 0.5,0.3 0.6,0.6 0.1,0.3 0.3,0.5 0.3,0.9 0,0.4 0.1,0.7 0.1,1.1 z"
   id="path39" />
			<path
   d="m 96.2,11.3 c -0.5,0 -0.9,-0.1 -1.3,-0.3 -0.4,-0.2 -0.7,-0.4 -1,-0.8 C 93.6,9.9 93.4,9.5 93.3,9.1 93.1,8.7 93.1,8.3 93.1,7.8 c 0,-0.5 0.1,-0.9 0.2,-1.3 0.1,-0.4 0.4,-0.8 0.6,-1.1 0.3,-0.3 0.6,-0.6 1,-0.8 0.4,-0.2 0.8,-0.3 1.3,-0.3 0.6,0 1,0.1 1.5,0.4 0.4,0.3 0.8,0.6 1.1,1 V 4.5 h 1 v 6.6 c 0,0.6 -0.2,1.2 -0.5,1.6 -0.3,0.4 -0.7,0.8 -1.2,1 C 97.6,13.9 97,14 96.4,14 95.6,14 95,13.9 94.5,13.6 94,13.3 93.6,13 93.3,12.5 L 94,11.9 c 0.3,0.4 0.6,0.7 1,0.9 0.4,0.2 0.9,0.3 1.4,0.3 0.4,0 0.8,-0.1 1.1,-0.2 0.3,-0.1 0.6,-0.4 0.8,-0.7 0.2,-0.3 0.3,-0.7 0.3,-1.1 V 10 c -0.2,0.4 -0.6,0.7 -1,1 -0.5,0.2 -0.9,0.3 -1.4,0.3 z m 0.3,-0.9 c 0.2,0 0.5,0 0.7,-0.1 0.2,-0.1 0.4,-0.2 0.6,-0.3 0.2,-0.1 0.3,-0.3 0.5,-0.5 0.1,-0.2 0.2,-0.4 0.3,-0.6 v -2 C 98.5,6.6 98.3,6.3 98.1,6.1 97.9,5.9 97.6,5.7 97.3,5.5 97,5.3 96.7,5.3 96.4,5.3 c -0.3,0 -0.7,0.1 -0.9,0.2 -0.3,0.1 -0.5,0.3 -0.7,0.6 -0.2,0.2 -0.3,0.5 -0.4,0.8 -0.1,0.3 -0.2,0.6 -0.2,0.9 0,0.3 0.1,0.7 0.2,0.9 0.1,0.2 0.3,0.6 0.5,0.8 0.2,0.2 0.5,0.4 0.7,0.5 0.2,0.1 0.6,0.4 0.9,0.4 z"
   id="path41" />
			<path
   d="m 112,8.8 c 0,0.5 -0.1,0.9 -0.4,1.2 -0.2,0.4 -0.6,0.6 -1,0.8 -0.4,0.2 -0.9,0.3 -1.3,0.3 H 105 V 2 h 4.6 c 0.4,0 0.8,0.1 1.1,0.3 0.3,0.2 0.6,0.5 0.7,0.9 0.2,0.4 0.3,0.7 0.3,1.1 0,0.4 -0.1,0.9 -0.3,1.3 -0.2,0.4 -0.6,0.7 -1,0.9 0.5,0.2 0.9,0.4 1.2,0.9 0.3,0.4 0.4,0.8 0.4,1.4 z M 106.1,3 v 3.1 h 2.9 c 0.3,0 0.5,-0.1 0.7,-0.2 0.2,-0.1 0.4,-0.3 0.5,-0.6 0.1,-0.2 0.2,-0.5 0.2,-0.8 0,-0.3 -0.1,-0.6 -0.2,-0.8 C 110.1,3.5 109.9,3.3 109.7,3.2 109.5,3.1 109.3,3 109,3 Z m 4.7,5.6 c 0,-0.3 -0.1,-0.5 -0.2,-0.8 C 110.5,7.6 110.3,7.4 110.1,7.2 109.9,7.1 109.6,7 109.4,7 h -3.3 v 3.1 h 3.2 c 0.3,0 0.5,-0.1 0.8,-0.2 0.2,-0.1 0.4,-0.3 0.5,-0.6 0.2,-0.2 0.2,-0.4 0.2,-0.7 z"
   id="path43" />
			<path
   d="m 116.4,11.3 c -0.5,0 -1,-0.1 -1.4,-0.3 -0.4,-0.2 -0.8,-0.4 -1.1,-0.8 -0.3,-0.3 -0.5,-0.7 -0.7,-1.1 -0.2,-0.4 -0.3,-0.9 -0.3,-1.3 0,-0.6 0.1,-1.2 0.4,-1.7 0.3,-0.5 0.7,-0.9 1.2,-1.3 0.5,-0.3 1.1,-0.5 1.8,-0.5 0.7,0 1.3,0.2 1.8,0.5 0.5,0.3 0.9,0.7 1.2,1.3 0.3,0.5 0.4,1.1 0.4,1.7 0,0.1 0,0.2 0,0.2 0,0.1 0,0.1 0,0.2 h -5.6 c 0,0.4 0.2,0.8 0.4,1.2 0.2,0.3 0.5,0.6 0.8,0.8 0.3,0.2 0.7,0.3 1.1,0.3 0.4,0 0.8,-0.1 1.2,-0.3 0.4,-0.2 0.6,-0.5 0.8,-0.8 l 1,0.3 c -0.1,0.3 -0.4,0.6 -0.7,0.9 -0.3,0.3 -0.6,0.5 -1,0.6 -0.4,0 -0.8,0.1 -1.3,0.1 z m -2.2,-3.9 h 4.6 c 0,-0.4 -0.2,-0.8 -0.4,-1.1 -0.2,-0.3 -0.5,-0.6 -0.8,-0.8 -0.3,-0.2 -0.7,-0.3 -1.1,-0.3 -0.4,0 -0.8,0.1 -1.1,0.3 -0.3,0.2 -0.6,0.4 -0.8,0.8 -0.3,0.3 -0.4,0.7 -0.4,1.1 z"
   id="path45" />
			<path
   d="m 120.5,9.2 c 0,-0.4 0.1,-0.8 0.4,-1.1 0.3,-0.3 0.6,-0.6 1,-0.7 0.4,-0.2 0.9,-0.3 1.5,-0.3 0.3,0 0.6,0 1,0.1 0.3,0 0.6,0.1 0.9,0.2 V 7 c 0,-0.5 -0.2,-0.9 -0.5,-1.2 -0.3,-0.3 -0.7,-0.4 -1.3,-0.4 -0.4,0 -0.7,0.1 -1.1,0.2 -0.3,0.1 -0.7,0.3 -1.1,0.6 l -0.4,-0.8 c 0.4,-0.3 0.9,-0.5 1.3,-0.7 0.4,-0.1 0.9,-0.2 1.4,-0.2 0.9,0 1.5,0.2 2,0.7 0.5,0.5 0.7,1.1 0.7,2 V 10 c 0,0.1 0,0.2 0.1,0.3 0.1,0.1 0.1,0.1 0.3,0.1 v 0.9 c -0.1,0 -0.2,0 -0.3,0 -0.1,0 -0.1,0 -0.2,0 -0.3,0 -0.5,-0.1 -0.6,-0.2 -0.1,-0.1 -0.2,-0.3 -0.2,-0.5 v -0.4 c -0.3,0.4 -0.7,0.7 -1.1,0.9 -0.5,0.2 -0.9,0.3 -1.4,0.3 -0.4,0 -0.8,-0.1 -1.2,-0.3 -0.4,-0.2 -0.6,-0.4 -0.8,-0.7 -0.3,-0.4 -0.4,-0.8 -0.4,-1.2 z m 4.4,0.5 c 0.1,-0.1 0.2,-0.2 0.2,-0.4 0.1,-0.1 0.1,-0.2 0.1,-0.3 V 8.2 C 125,8.1 124.7,8 124.4,8 c -0.3,-0.1 -0.6,-0.1 -0.9,-0.1 -0.6,0 -1,0.1 -1.4,0.3 -0.4,0.2 -0.5,0.5 -0.5,0.9 0,0.2 0.1,0.4 0.2,0.6 0.1,0.2 0.3,0.4 0.5,0.5 0.2,0.1 0.5,0.2 0.8,0.2 0.4,0 0.7,-0.1 1,-0.2 0.4,-0.1 0.6,-0.3 0.8,-0.5 z"
   id="path47" />
			<path
   d="m 131.7,10.9 c -0.1,0 -0.2,0.1 -0.4,0.2 -0.2,0.1 -0.4,0.1 -0.6,0.2 -0.2,0.1 -0.4,0.1 -0.7,0.1 -0.3,0 -0.5,0 -0.8,-0.1 -0.2,-0.1 -0.4,-0.3 -0.6,-0.5 -0.1,-0.2 -0.2,-0.5 -0.2,-0.8 V 5.4 h -0.9 V 4.5 h 0.9 V 2.2 h 1.1 v 2.2 h 1.5 v 0.9 h -1.5 v 4.2 c 0,0.2 0.1,0.4 0.2,0.5 0.1,0.1 0.3,0.2 0.5,0.2 0.2,0 0.4,0 0.6,-0.1 0.2,-0.1 0.3,-0.1 0.4,-0.2 z"
   id="path49" />
		</g>
	</g>
	<g
   id="g57">
		<path
   d="M 3.2,24 C 2.9,23.9 2.6,23.8 2.4,23.7 0.2,22.7 -0.3,19.9 1.4,18.2 1.8,17.8 2.3,17.4 2.8,16.9 2.9,16.9 2.9,16.8 3,16.8 2.9,16.7 2.7,16.5 2.6,16.4 2.3,16.1 2.3,15.8 2.6,15.5 4.4,13.5 6.2,11.6 8,9.6 8.3,9.3 8.5,9 8.8,8.8 c 1.2,1.4 2.4,2.7 3.6,4.1 -0.5,0.3 -0.9,0.6 -1.4,1 C 9,15.3 7,16.7 4.9,18.1 4.5,18.4 4.3,18.4 3.9,18 3.8,17.9 3.7,17.8 3.6,17.6 3.5,17.7 3.5,17.8 3.4,17.8 3,18.2 2.6,18.5 2.2,18.9 c -0.7,0.6 -0.9,1.4 -0.7,2.2 0.2,0.9 0.8,1.5 1.7,1.7 0.7,0.2 1.3,0.1 1.9,-0.4 0.1,-0.1 0.2,-0.2 0.3,-0.2 1.8,-1.6 3.5,-3.1 5.3,-4.7 0.8,-0.7 1.7,-1 2.7,-0.9 0.8,0.1 1.6,0.5 2.1,1.1 0.4,0.5 0.9,1 1.3,1.5 0.2,0.3 0.2,0.6 0,0.8 -0.2,0.2 -0.6,0.2 -0.8,-0.1 -0.4,-0.5 -0.8,-0.9 -1.2,-1.4 -0.9,-1.1 -2.3,-1.1 -3.4,-0.2 -1.8,1.5 -3.5,3.1 -5.2,4.6 -0.6,0.6 -1.3,0.9 -2.2,1 0,0 0,0 -0.1,0 C 3.7,24 3.4,24 3.2,24 Z"
   id="path55" />
	</g>
	<circle
   class="st5"
   cx="13.2"
   cy="7.8000002"
   r="2.9000001"
   id="circle59" />
</g>
</svg>
